<?xml version="1.0" encoding="UTF-8"?>
<svg version="1.1" xmlns="http://www.w3.org/2000/svg" width="696" height="656">
<path d="M0 0 C10.23 0 20.46 0 31 0 C31 0.66 31 1.32 31 2 C37.6 2 44.2 2 51 2 C51 2.99 51 3.98 51 5 C54.63 5 58.26 5 62 5 C62 5.66 62 6.32 62 7 C65.3 7 68.6 7 72 7 C72 7.99 72 8.98 72 10 C74.31 10 76.62 10 79 10 C79 10.66 79 11.32 79 12 C81.64 12 84.28 12 87 12 C87 12.99 87 13.98 87 15 C88.65 15 90.3 15 92 15 C92 15.66 92 16.32 92 17 C93.65 17 95.3 17 97 17 C97 17.99 97 18.98 97 20 C98.65 20 100.3 20 102 20 C102 20.66 102 21.32 102 22 C103.65 22 105.3 22 107 22 C107 22.99 107 23.98 107 25 C108.65 25 110.3 25 112 25 C112 25.66 112 26.32 112 27 C113.65 27 115.3 27 117 27 C117 27.99 117 28.98 117 30 C117.99 30 118.98 30 120 30 C120 30.66 120 31.32 120 32 C121.65 32.33 123.3 32.66 125 33 C125 33.66 125 34.32 125 35 C125.66 35 126.32 35 127 35 C127 35.66 127 36.32 127 37 C128.65 37 130.3 37 132 37 C132 37.99 132 38.98 132 40 C132.99 40 133.98 40 135 40 C135 40.99 135 41.98 135 43 C135.66 43 136.32 43 137 43 C137 43.66 137 44.32 137 45 C137.99 45 138.98 45 140 45 C140 45.99 140 46.98 140 48 C140.66 48 141.32 48 142 48 C142 48.66 142 49.32 142 50 C143.65 50 145.3 50 147 50 C147 50.99 147 51.98 147 53 C147.99 53 148.98 53 150 53 C150 53.66 150 54.32 150 55 C150.99 55 151.98 55 153 55 C153 55.99 153 56.98 153 58 C153.66 58 154.32 58 155 58 C155 58.99 155 59.98 155 61 C155.66 61 156.32 61 157 61 C157.33 62.32 157.66 63.64 158 65 C158.66 65 159.32 65 160 65 C160 65.99 160 66.98 160 68 C165.94 68 171.88 68 178 68 C178 68.66 178 69.32 178 70 C182.95 70 187.9 70 193 70 C193 70.99 193 71.98 193 73 C196.3 73 199.6 73 203 73 C203 73.66 203 74.32 203 75 C205.64 75 208.28 75 211 75 C211 75.99 211 76.98 211 78 C213.31 78 215.62 78 218 78 C218 78.66 218 79.32 218 80 C219.65 80 221.3 80 223 80 C223 80.99 223 81.98 223 83 C224.65 83 226.3 83 228 83 C228 83.66 228 84.32 228 85 C229.65 85 231.3 85 233 85 C233 85.99 233 86.98 233 88 C234.65 88 236.3 88 238 88 C238 88.99 238 89.98 238 91 C239.65 91 241.3 91 243 91 C243 91.66 243 92.32 243 93 C243.99 93 244.98 93 246 93 C246 93.99 246 94.98 246 96 C247.65 96 249.3 96 251 96 C251 96.66 251 97.32 251 98 C251.99 98 252.98 98 254 98 C254 98.99 254 99.98 254 101 C254.66 101 255.32 101 256 101 C256 101.66 256 102.32 256 103 C258.475 103.495 258.475 103.495 261 104 C261 104.66 261 105.32 261 106 C261.99 106 262.98 106 264 106 C264 106.66 264 107.32 264 108 C264.66 108 265.32 108 266 108 C266 108.99 266 109.98 266 111 C266.99 111 267.98 111 269 111 C269 111.66 269 112.32 269 113 C269.66 113 270.32 113 271 113 C271 113.99 271 114.98 271 116 C271.99 116 272.98 116 274 116 C274 116.66 274 117.32 274 118 C274.66 118 275.32 118 276 118 C276 118.99 276 119.98 276 121 C276.99 121 277.98 121 279 121 C279 122.65 279 124.3 279 126 C279.66 126 280.32 126 281 126 C281 126.66 281 127.32 281 128 C281.99 128 282.98 128 284 128 C284 128.99 284 129.98 284 131 C284.66 131 285.32 131 286 131 C286 131.99 286 132.98 286 134 C286.66 134 287.32 134 288 134 C288.33 135.65 288.66 137.3 289 139 C289.99 139 290.98 139 292 139 C292 140.65 292 142.3 292 144 C292.66 144 293.32 144 294 144 C294 144.66 294 145.32 294 146 C294.99 146 295.98 146 297 146 C297 147.65 297 149.3 297 151 C297.66 151 298.32 151 299 151 C299 151.99 299 152.98 299 154 C299.99 154 300.98 154 302 154 C302 154.66 302 155.32 302 156 C304.31 156 306.62 156 309 156 C309 156.99 309 157.98 309 159 C310.65 159 312.3 159 314 159 C314 159.66 314 160.32 314 161 C315.65 161 317.3 161 319 161 C319 161.99 319 162.98 319 164 C320.65 164 322.3 164 324 164 C324 164.66 324 165.32 324 166 C324.99 166 325.98 166 327 166 C327 166.99 327 167.98 327 169 C328.65 169 330.3 169 332 169 C332 169.66 332 170.32 332 171 C332.66 171 333.32 171 334 171 C334 171.99 334 172.98 334 174 C334.99 174 335.98 174 337 174 C337 174.66 337 175.32 337 176 C337.99 176.33 338.98 176.66 340 177 C340 177.66 340 178.32 340 179 C340.66 179 341.32 179 342 179 C342 179.99 342 180.98 342 182 C342.99 182 343.98 182 345 182 C345 182.66 345 183.32 345 184 C345.66 184 346.32 184 347 184 C347 184.99 347 185.98 347 187 C347.99 187 348.98 187 350 187 C350 187.66 350 188.32 350 189 C350.66 189 351.32 189 352 189 C352 189.99 352 190.98 352 192 C352.99 192 353.98 192 355 192 C355 192.66 355 193.32 355 194 C355.66 194 356.32 194 357 194 C357 195.65 357 197.3 357 199 C357.99 199 358.98 199 360 199 C360 199.99 360 200.98 360 202 C360.66 202 361.32 202 362 202 C362 203.65 362 205.3 362 207 C362.99 207 363.98 207 365 207 C365 208.65 365 210.3 365 212 C365.66 212 366.32 212 367 212 C367 213.65 367 215.3 367 217 C367.99 217 368.98 217 370 217 C370 218.65 370 220.3 370 222 C370.66 222 371.32 222 372 222 C372 224.64 372 227.28 372 230 C372.99 230 373.98 230 375 230 C375 233.3 375 236.6 375 240 C375.66 240 376.32 240 377 240 C377 246.6 377 253.2 377 260 C377.99 260 378.98 260 380 260 C380 263.63 380 267.26 380 271 C379.01 271 378.02 271 377 271 C377 277.6 377 284.2 377 291 C376.34 291 375.68 291 375 291 C375 293.64 375 296.28 375 299 C374.01 299 373.02 299 372 299 C372 301.31 372 303.62 372 306 C371.34 306 370.68 306 370 306 C370 308.64 370 311.28 370 314 C369.01 314 368.02 314 367 314 C367 315.65 367 317.3 367 319 C366.34 319 365.68 319 365 319 C365 320.65 365 322.3 365 324 C364.01 324 363.02 324 362 324 C362 324.66 362 325.32 362 326 C361.34 326 360.68 326 360 326 C360 327.65 360 329.3 360 331 C359.01 331 358.02 331 357 331 C357 331.99 357 332.98 357 334 C356.34 334 355.68 334 355 334 C355 335.65 355 337.3 355 339 C354.01 339 353.02 339 352 339 C352 339.99 352 340.98 352 342 C351.34 342 350.68 342 350 342 C350 342.66 350 343.32 350 344 C349.01 344 348.02 344 347 344 C347 344.99 347 345.98 347 347 C346.34 347 345.68 347 345 347 C345 347.66 345 348.32 345 349 C344.01 349 343.02 349 342 349 C342 349.99 342 350.98 342 352 C341.34 352 340.68 352 340 352 C340 352.66 340 353.32 340 354 C339.01 354 338.02 354 337 354 C337 354.99 337 355.98 337 357 C336.01 357 335.02 357 334 357 C334 357.66 334 358.32 334 359 C332.35 359 330.7 359 329 359 C329 359.99 329 360.98 329 362 C328.34 362 327.68 362 327 362 C327 362.66 327 363.32 327 364 C325.35 364 323.7 364 322 364 C322 364.99 322 365.98 322 367 C320.35 367 318.7 367 317 367 C317 367.66 317 368.32 317 369 C315.35 369 313.7 369 312 369 C312 369.99 312 370.98 312 372 C310.35 372 308.7 372 307 372 C307 372.66 307 373.32 307 374 C304.36 374 301.72 374 299 374 C299 374.99 299 375.98 299 377 C296.69 377 294.38 377 292 377 C291.67 377.99 291.34 378.98 291 380 C287.04 380 283.08 380 279 380 C279 380.66 279 381.32 279 382 C267.78 382 256.56 382 245 382 C245 381.34 245 380.68 245 380 C241.04 380 237.08 380 233 380 C232.67 379.01 232.34 378.02 232 377 C229.69 377 227.38 377 225 377 C225 376.01 225 375.02 225 374 C222.36 374 219.72 374 217 374 C217 373.34 217 372.68 217 372 C215.02 372 213.04 372 211 372 C211 372.66 211 373.32 211 374 C208.36 374 205.72 374 203 374 C203 374.99 203 375.98 203 377 C199.7 377 196.4 377 193 377 C193 377.99 193 378.98 193 380 C188.05 380 183.1 380 178 380 C178 380.66 178 381.32 178 382 C165.13 382 152.26 382 139 382 C139 381.34 139 380.68 139 380 C134.05 380 129.1 380 124 380 C124 379.01 124 378.02 124 377 C123.01 377 122.02 377 121 377 C121 370.07 121 363.14 121 356 C121.99 356 122.98 356 124 356 C124 355.01 124 354.02 124 353 C124.66 353 125.32 353 126 353 C126 352.34 126 351.68 126 351 C130.62 351 135.24 351 140 351 C140 351.66 140 352.32 140 353 C145.2512212 352.88205894 150.50224097 352.75783398 155.75317383 352.62768555 C157.5408927 352.584273 159.32865474 352.54260271 161.11645508 352.50268555 C163.68063391 352.4451354 166.24459412 352.38139797 168.80859375 352.31640625 C170.01484657 352.29133751 170.01484657 352.29133751 171.24546814 352.26576233 C174.92669998 352.50779304 174.92669998 352.50779304 178 351 C180.01964199 350.92755947 182.04167124 350.91622812 184.0625 350.9375 C185.16722656 350.94652344 186.27195312 350.95554687 187.41015625 350.96484375 C188.69212891 350.98224609 188.69212891 350.98224609 190 351 C190 350.34 190 349.68 190 349 C193.21451269 347.39274365 196.43612536 347.94251815 200 348 C200 347.34 200 346.68 200 346 C201.65 346 203.3 346 205 346 C205 345.01 205 344.02 205 343 C210.94 343 216.88 343 223 343 C223 343.99 223 344.98 223 346 C224.65 346 226.3 346 228 346 C228 346.66 228 347.32 228 348 C230.64 348 233.28 348 236 348 C236 348.99 236 349.98 236 351 C239.3 351 242.6 351 246 351 C246 351.66 246 352.32 246 353 C256.56 353 267.12 353 278 353 C278 352.34 278 351.68 278 351 C281.3 351 284.6 351 288 351 C288 350.01 288 349.02 288 348 C290.64 348 293.28 348 296 348 C296 347.34 296 346.68 296 346 C297.65 346 299.3 346 301 346 C301 345.01 301 344.02 301 343 C302.65 343 304.3 343 306 343 C306 342.34 306 341.68 306 341 C306.66 341 307.32 341 308 341 C308 340.01 308 339.02 308 338 C309.65 338 311.3 338 313 338 C313 337.34 313 336.68 313 336 C313.99 336 314.98 336 316 336 C316 335.01 316 334.02 316 333 C316.66 333 317.32 333 318 333 C318 332.34 318 331.68 318 331 C318.99 331 319.98 331 321 331 C321.33 330.01 321.66 329.02 322 328 C323.32 328 324.64 328 326 328 C326 327.34 326 326.68 326 326 C326.99 326 327.98 326 329 326 C329 324.35 329 322.7 329 321 C329.66 321 330.32 321 331 321 C331 320.01 331 319.02 331 318 C331.99 318 332.98 318 334 318 C334 317.01 334 316.02 334 315 C334.66 315 335.32 315 336 315 C336 313.35 336 311.7 336 310 C336.99 310 337.98 310 339 310 C339 308.68 339 307.36 339 306 C339.66 306 340.32 306 341 306 C341 305.01 341 304.02 341 303 C341.99 303 342.98 303 344 303 C344 300.36 344 297.72 344 295 C344.66 295 345.32 295 346 295 C346 292.69 346 290.38 346 288 C346.99 288 347.98 288 349 288 C349 283.71 349 279.42 349 275 C349.66 275 350.32 275 351 275 C351 268.73 351 262.46 351 256 C350.34 256 349.68 256 349 256 C349 251.71 349 247.42 349 243 C348.01 243 347.02 243 346 243 C346 240.36 346 237.72 346 235 C345.34 235 344.68 235 344 235 C344 232.69 344 230.38 344 228 C343.01 228 342.02 228 341 228 C341 226.35 341 224.7 341 223 C340.34 223 339.68 223 339 223 C339 221.35 339 219.7 339 218 C338.01 218 337.02 218 336 218 C336 217.01 336 216.02 336 215 C335.34 215 334.68 215 334 215 C334 214.34 334 213.68 334 213 C333.01 213 332.02 213 331 213 C331 211.35 331 209.7 331 208 C330.34 208 329.68 208 329 208 C329 207.01 329 206.02 329 205 C328.01 205 327.02 205 326 205 C326 204.34 326 203.68 326 203 C325.01 202.67 324.02 202.34 323 202 C323 201.34 323 200.68 323 200 C322.34 200 321.68 200 321 200 C321 199.34 321 198.68 321 198 C320.01 197.67 319.02 197.34 318 197 C318 196.34 318 195.68 318 195 C317.34 195 316.68 195 316 195 C316 194.01 316 193.02 316 192 C314.35 192 312.7 192 311 192 C311 191.34 311 190.68 311 190 C310.01 190 309.02 190 308 190 C308 189.01 308 188.02 308 187 C306.35 187 304.7 187 303 187 C303 186.34 303 185.68 303 185 C301.35 185 299.7 185 298 185 C298 184.01 298 183.02 298 182 C295.69 182 293.38 182 291 182 C291 181.34 291 180.68 291 180 C288.36 180 285.72 180 283 180 C283 179.01 283 178.02 283 177 C281.35 177 279.7 177 278 177 C278 176.34 278 175.68 278 175 C277.01 174.67 276.02 174.34 275 174 C275 171.69 275 169.38 275 167 C274.34 167 273.68 167 273 167 C273 166.34 273 165.68 273 165 C272.01 164.67 271.02 164.34 270 164 C270 162.68 270 161.36 270 160 C269.34 160 268.68 160 268 160 C268 158.35 268 156.7 268 155 C267.01 154.67 266.02 154.34 265 154 C265 153.34 265 152.68 265 152 C264.34 152 263.68 152 263 152 C263 150.35 263 148.7 263 147 C262.01 147 261.02 147 260 147 C260 146.01 260 145.02 260 144 C259.34 144 258.68 144 258 144 C258 143.34 258 142.68 258 142 C257.01 142 256.02 142 255 142 C255 141.01 255 140.02 255 139 C254.34 139 253.68 139 253 139 C253 138.34 253 137.68 253 137 C252.01 137 251.02 137 250 137 C250 136.01 250 135.02 250 134 C249.34 134 248.68 134 248 134 C248 133.34 248 132.68 248 132 C247.01 132 246.02 132 245 132 C245 131.01 245 130.02 245 129 C244.34 129 243.68 129 243 129 C243 128.34 243 127.68 243 127 C242.01 127 241.02 127 240 127 C240 126.01 240 125.02 240 124 C239.34 124 238.68 124 238 124 C238 123.34 238 122.68 238 122 C236.35 122 234.7 122 233 122 C233 121.01 233 120.02 233 119 C232.01 119 231.02 119 230 119 C230 118.34 230 117.68 230 117 C228.35 117 226.7 117 225 117 C225 116.01 225 115.02 225 114 C224.01 114 223.02 114 222 114 C222 113.34 222 112.68 222 112 C220.35 111.67 218.7 111.34 217 111 C217 110.34 217 109.68 217 109 C215.35 109 213.7 109 212 109 C212 108.34 212 107.68 212 107 C209.69 106.67 207.38 106.34 205 106 C205 105.34 205 104.68 205 104 C203.35 104 201.7 104 200 104 C200 103.34 200 102.68 200 102 C197.36 102 194.72 102 192 102 C192 101.01 192 100.02 192 99 C187.71 99 183.42 99 179 99 C179 98.01 179 97.02 179 96 C169.1 96 159.2 96 149 96 C149 95.34 149 94.68 149 94 C147.35 94 145.7 94 144 94 C144 92.35 144 90.7 144 89 C143.34 89 142.68 89 142 89 C142 88.01 142 87.02 142 86 C141.01 86 140.02 86 139 86 C139 85.34 139 84.68 139 84 C138.01 84 137.02 84 136 84 C136 83.01 136 82.02 136 81 C135.34 81 134.68 81 134 81 C134 80.34 134 79.68 134 79 C133.01 79 132.02 79 131 79 C131 78.01 131 77.02 131 76 C130.34 76 129.68 76 129 76 C129 75.34 129 74.68 129 74 C128.01 74 127.02 74 126 74 C126 73.01 126 72.02 126 71 C125.34 71 124.68 71 124 71 C124 70.34 124 69.68 124 69 C123.01 69 122.02 69 121 69 C121 68.01 121 67.02 121 66 C120.34 66 119.68 66 119 66 C119 65.34 119 64.68 119 64 C117.35 64 115.7 64 114 64 C114 63.01 114 62.02 114 61 C113.01 61 112.02 61 111 61 C111 60.34 111 59.68 111 59 C110.34 59 109.68 59 109 59 C109 58.01 109 57.02 109 56 C107.35 56 105.7 56 104 56 C104 55.01 104 54.02 104 53 C103.01 53 102.02 53 101 53 C101 52.34 101 51.68 101 51 C99.35 51 97.7 51 96 51 C96 50.01 96 49.02 96 48 C94.35 48 92.7 48 91 48 C91 47.34 91 46.68 91 46 C89.35 46 87.7 46 86 46 C86 45.01 86 44.02 86 43 C84.35 43 82.7 43 81 43 C81 42.34 81 41.68 81 41 C79.35 41 77.7 41 76 41 C76 40.01 76 39.02 76 38 C73.36 38 70.72 38 68 38 C68 37.34 68 36.68 68 36 C65.69 36 63.38 36 61 36 C61 35.01 61 34.02 61 33 C56.71 33 52.42 33 48 33 C48 32.34 48 31.68 48 31 C43.38 31 38.76 31 34 31 C33.67 30.01 33.34 29.02 33 28 C21.45 28 9.9 28 -2 28 C-2 28.99 -2 29.98 -2 31 C-6.95 31 -11.9 31 -17 31 C-17 31.66 -17 32.32 -17 33 C-20.3 33 -23.6 33 -27 33 C-27 33.99 -27 34.98 -27 36 C-29.64 36 -32.28 36 -35 36 C-35 36.66 -35 37.32 -35 38 C-37.31 38 -39.62 38 -42 38 C-42 38.99 -42 39.98 -42 41 C-44.64 41 -47.28 41 -50 41 C-50 41.66 -50 42.32 -50 43 C-51.65 43 -53.3 43 -55 43 C-55 43.99 -55 44.98 -55 46 C-56.65 46 -58.3 46 -60 46 C-60 46.66 -60 47.32 -60 48 C-61.65 48 -63.3 48 -65 48 C-65 48.99 -65 49.98 -65 51 C-65.66 51 -66.32 51 -67 51 C-67 51.66 -67 52.32 -67 53 C-68.65 53 -70.3 53 -72 53 C-72 53.99 -72 54.98 -72 56 C-72.99 56 -73.98 56 -75 56 C-75 56.99 -75 57.98 -75 59 C-76.65 59 -78.3 59 -80 59 C-80 59.66 -80 60.32 -80 61 C-80.99 61 -81.98 61 -83 61 C-83 61.99 -83 62.98 -83 64 C-83.66 64 -84.32 64 -85 64 C-85 64.66 -85 65.32 -85 66 C-86.65 66 -88.3 66 -90 66 C-90 66.99 -90 67.98 -90 69 C-90.99 69 -91.98 69 -93 69 C-93 69.66 -93 70.32 -93 71 C-93.66 71 -94.32 71 -95 71 C-95 71.99 -95 72.98 -95 74 C-95.99 74 -96.98 74 -98 74 C-98 74.66 -98 75.32 -98 76 C-98.66 76 -99.32 76 -100 76 C-100 76.99 -100 77.98 -100 79 C-100.99 79 -101.98 79 -103 79 C-103 79.66 -103 80.32 -103 81 C-103.66 81 -104.32 81 -105 81 C-105 81.99 -105 82.98 -105 84 C-105.99 84 -106.98 84 -108 84 C-108 85.32 -108 86.64 -108 88 C-108.66 88 -109.32 88 -110 88 C-110 88.99 -110 89.98 -110 91 C-110.99 91 -111.98 91 -113 91 C-113 91.99 -113 92.98 -113 94 C-113.66 94 -114.32 94 -115 94 C-115 94.66 -115 95.32 -115 96 C-115.99 96 -116.98 96 -118 96 C-118 97.98 -118 99.96 -118 102 C-118.66 102 -119.32 102 -120 102 C-120 102.66 -120 103.32 -120 104 C-120.99 104 -121.98 104 -123 104 C-123 105.65 -123 107.3 -123 109 C-123.66 109 -124.32 109 -125 109 C-125 110.65 -125 112.3 -125 114 C-125.99 114 -126.98 114 -128 114 C-128 115.65 -128 117.3 -128 119 C-128.99 119 -129.98 119 -131 119 C-131 120.65 -131 122.3 -131 124 C-131.66 124 -132.32 124 -133 124 C-133 125.65 -133 127.3 -133 129 C-133.99 129 -134.98 129 -136 129 C-136 130.65 -136 132.3 -136 134 C-136.66 134 -137.32 134 -138 134 C-138 135.65 -138 137.3 -138 139 C-138.99 139 -139.98 139 -141 139 C-141 139.99 -141 140.98 -141 142 C-142.65 142 -144.3 142 -146 142 C-146 142.66 -146 143.32 -146 144 C-149.3 144 -152.6 144 -156 144 C-156 144.99 -156 145.98 -156 147 C-159.3 147 -162.6 147 -166 147 C-166 147.99 -166 148.98 -166 150 C-167.65 150 -169.3 150 -171 150 C-171 150.66 -171 151.32 -171 152 C-172.65 152 -174.3 152 -176 152 C-176.33 152.99 -176.66 153.98 -177 155 C-178.32 155 -179.64 155 -181 155 C-181 155.66 -181 156.32 -181 157 C-182.65 157 -184.3 157 -186 157 C-186 157.99 -186 158.98 -186 160 C-187.65 160 -189.3 160 -191 160 C-191 160.66 -191 161.32 -191 162 C-191.99 162 -192.98 162 -194 162 C-194 162.99 -194 163.98 -194 165 C-194.66 165 -195.32 165 -196 165 C-196 165.66 -196 166.32 -196 167 C-196.99 167 -197.98 167 -199 167 C-199 167.66 -199 168.32 -199 169 C-200.65 169.33 -202.3 169.66 -204 170 C-204 170.66 -204 171.32 -204 172 C-204.66 172 -205.32 172 -206 172 C-206 172.99 -206 173.98 -206 175 C-206.99 175 -207.98 175 -209 175 C-209 175.66 -209 176.32 -209 177 C-209.66 177 -210.32 177 -211 177 C-211 178.65 -211 180.3 -211 182 C-211.99 182 -212.98 182 -214 182 C-214 182.99 -214 183.98 -214 185 C-214.66 185 -215.32 185 -216 185 C-216 185.66 -216 186.32 -216 187 C-216.99 187 -217.98 187 -219 187 C-219 188.65 -219 190.3 -219 192 C-219.99 192 -220.98 192 -222 192 C-222 192.99 -222 193.98 -222 195 C-222.66 195 -223.32 195 -224 195 C-224 196.65 -224 198.3 -224 200 C-224.99 200 -225.98 200 -227 200 C-227 202.64 -227 205.28 -227 208 C-227.66 208 -228.32 208 -229 208 C-229 209.65 -229 211.3 -229 213 C-229.99 213 -230.98 213 -232 213 C-232 215.31 -232 217.62 -232 220 C-232.66 220 -233.32 220 -234 220 C-234 224.29 -234 228.58 -234 233 C-234.99 233 -235.98 233 -237 233 C-237 242.57 -237 252.14 -237 262 C-236.01 262 -235.02 262 -234 262 C-234 266.29 -234 270.58 -234 275 C-233.34 275 -232.68 275 -232 275 C-232 277.64 -232 280.28 -232 283 C-231.01 283 -230.02 283 -229 283 C-229 284.98 -229 286.96 -229 289 C-228.34 289 -227.68 289 -227 289 C-227 290.98 -227 292.96 -227 295 C-226.01 295 -225.02 295 -224 295 C-224 296.65 -224 298.3 -224 300 C-223.34 300 -222.68 300 -222 300 C-222 300.99 -222 301.98 -222 303 C-221.01 303 -220.02 303 -219 303 C-219 304.65 -219 306.3 -219 308 C-218.01 308 -217.02 308 -216 308 C-216 308.66 -216 309.32 -216 310 C-215.34 310 -214.68 310 -214 310 C-214 310.99 -214 311.98 -214 313 C-213.34 313 -212.68 313 -212 313 C-211.67 314.65 -211.34 316.3 -211 318 C-210.34 318 -209.68 318 -209 318 C-209 318.99 -209 319.98 -209 321 C-208.01 321 -207.02 321 -206 321 C-206 321.66 -206 322.32 -206 323 C-205.34 323 -204.68 323 -204 323 C-204 323.99 -204 324.98 -204 326 C-203.01 326 -202.02 326 -201 326 C-201 326.66 -201 327.32 -201 328 C-200.34 328 -199.68 328 -199 328 C-199 328.99 -199 329.98 -199 331 C-197.35 331 -195.7 331 -194 331 C-194 331.66 -194 332.32 -194 333 C-193.01 333 -192.02 333 -191 333 C-191 333.99 -191 334.98 -191 336 C-189.35 336 -187.7 336 -186 336 C-186 336.66 -186 337.32 -186 338 C-185.34 338 -184.68 338 -184 338 C-184 338.99 -184 339.98 -184 341 C-182.35 341 -180.7 341 -179 341 C-179 341.66 -179 342.32 -179 343 C-177.35 343 -175.7 343 -174 343 C-174 343.99 -174 344.98 -174 346 C-172.02 346 -170.04 346 -168 346 C-168 346.66 -168 347.32 -168 348 C-165.69 348 -163.38 348 -161 348 C-161 348.99 -161 349.98 -161 351 C-156.71 351 -152.42 351 -148 351 C-148 351.66 -148 352.32 -148 353 C-136.78 353 -125.56 353 -114 353 C-114 352.34 -114 351.68 -114 351 C-109.71 351 -105.42 351 -101 351 C-101 350.01 -101 349.02 -101 348 C-98.69 348 -96.38 348 -94 348 C-94 347.34 -94 346.68 -94 346 C-92.02 346 -90.04 346 -88 346 C-88 345.01 -88 344.02 -88 343 C-86.35 343 -84.7 343 -83 343 C-83 342.34 -83 341.68 -83 341 C-81.35 341 -79.7 341 -78 341 C-78 340.01 -78 339.02 -78 338 C-76.35 338 -74.7 338 -73 338 C-73 337.34 -73 336.68 -73 336 C-71.35 336 -69.7 336 -68 336 C-68 335.01 -68 334.02 -68 333 C-66.02 333 -64.04 333 -62 333 C-62 333.99 -62 334.98 -62 336 C-59.69 336 -57.38 336 -55 336 C-55 336.66 -55 337.32 -55 338 C-53.35 338 -51.7 338 -50 338 C-50 338.99 -50 339.98 -50 341 C-48.35 341 -46.7 341 -45 341 C-45 341.66 -45 342.32 -45 343 C-42.36 343 -39.72 343 -37 343 C-37 343.99 -37 344.98 -37 346 C-34.36 346 -31.72 346 -29 346 C-29 346.66 -29 347.32 -29 348 C-27.906875 347.979375 -26.81375 347.95875 -25.6875 347.9375 C-22 348 -22 348 -19 349 C-19 349.66 -19 350.32 -19 351 C-17.35 351 -15.7 351 -14 351 C-14 360.57 -14 370.14 -14 380 C-16.97 380 -19.94 380 -23 380 C-23 379.01 -23 378.02 -23 377 C-26.3 377 -29.6 377 -33 377 C-33 376.01 -33 375.02 -33 374 C-36.3 374 -39.6 374 -43 374 C-43 373.34 -43 372.68 -43 372 C-45.31 371.67 -47.62 371.34 -50 371 C-50 370.34 -50 369.68 -50 369 C-51.98 369 -53.96 369 -56 369 C-56 368.34 -56 367.68 -56 367 C-57.65 367 -59.3 367 -61 367 C-61.33 366.01 -61.66 365.02 -62 364 C-62.99 364 -63.98 364 -65 364 C-65 364.99 -65 365.98 -65 367 C-66.65 367 -68.3 367 -70 367 C-70 367.66 -70 368.32 -70 369 C-71.65 369 -73.3 369 -75 369 C-75.33 369.99 -75.66 370.98 -76 372 C-78.31 372 -80.62 372 -83 372 C-83 372.66 -83 373.32 -83 374 C-85.31 374 -87.62 374 -90 374 C-90 374.99 -90 375.98 -90 377 C-92.64 377 -95.28 377 -98 377 C-98 377.99 -98 378.98 -98 380 C-102.95 380 -107.9 380 -113 380 C-113 380.66 -113 381.32 -113 382 C-124.88 382 -136.76 382 -149 382 C-149 381.34 -149 380.68 -149 380 C-153.29 380 -157.58 380 -162 380 C-162 379.01 -162 378.02 -162 377 C-165.3 377 -168.6 377 -172 377 C-172 376.01 -172 375.02 -172 374 C-174.31 374 -176.62 374 -179 374 C-179 373.34 -179 372.68 -179 372 C-180.98 372 -182.96 372 -185 372 C-185 371.01 -185 370.02 -185 369 C-186.65 369 -188.3 369 -190 369 C-190 368.34 -190 367.68 -190 367 C-191.65 367 -193.3 367 -195 367 C-195 366.01 -195 365.02 -195 364 C-196.65 364 -198.3 364 -200 364 C-200 363.34 -200 362.68 -200 362 C-201.65 362 -203.3 362 -205 362 C-205 361.01 -205 360.02 -205 359 C-205.66 359 -206.32 359 -207 359 C-207 358.34 -207 357.68 -207 357 C-207.99 357 -208.98 357 -210 357 C-210 356.01 -210 355.02 -210 354 C-211.65 354 -213.3 354 -215 354 C-215 353.34 -215 352.68 -215 352 C-215.66 352 -216.32 352 -217 352 C-217 351.01 -217 350.02 -217 349 C-217.99 349 -218.98 349 -220 349 C-220 348.34 -220 347.68 -220 347 C-220.66 347 -221.32 347 -222 347 C-222 346.01 -222 345.02 -222 344 C-222.99 344 -223.98 344 -225 344 C-225 343.34 -225 342.68 -225 342 C-225.66 342 -226.32 342 -227 342 C-227 341.01 -227 340.02 -227 339 C-227.99 339 -228.98 339 -230 339 C-230 338.34 -230 337.68 -230 337 C-230.99 336.67 -231.98 336.34 -233 336 C-233 335.34 -233 334.68 -233 334 C-233.66 334 -234.32 334 -235 334 C-235 333.01 -235 332.02 -235 331 C-235.99 331 -236.98 331 -238 331 C-238 329.35 -238 327.7 -238 326 C-238.66 326 -239.32 326 -240 326 C-240 325.34 -240 324.68 -240 324 C-240.99 324 -241.98 324 -243 324 C-243 323.01 -243 322.02 -243 321 C-243.66 321 -244.32 321 -245 321 C-245 319.35 -245 317.7 -245 316 C-245.99 316 -246.98 316 -248 316 C-248 314.35 -248 312.7 -248 311 C-248.66 311 -249.32 311 -250 311 C-250 309.35 -250 307.7 -250 306 C-250.99 306 -251.98 306 -253 306 C-253 304.35 -253 302.7 -253 301 C-253.66 301 -254.32 301 -255 301 C-255 298.69 -255 296.38 -255 294 C-255.99 294 -256.98 294 -258 294 C-258 291.36 -258 288.72 -258 286 C-258.66 286 -259.32 286 -260 286 C-260 283.36 -260 280.72 -260 278 C-260.99 278 -261.98 278 -263 278 C-263 271.4 -263 264.8 -263 258 C-263.66 258 -264.32 258 -265 258 C-265 251.07 -265 244.14 -265 237 C-264.34 237 -263.68 237 -263 237 C-263 231.06 -263 225.12 -263 219 C-262.01 219 -261.02 219 -260 219 C-260 215.7 -260 212.4 -260 209 C-259.34 209 -258.68 209 -258 209 C-258 206.69 -258 204.38 -258 202 C-257.01 202 -256.02 202 -255 202 C-255 199.36 -255 196.72 -255 194 C-254.34 194 -253.68 194 -253 194 C-253 192.35 -253 190.7 -253 189 C-252.01 189 -251.02 189 -250 189 C-250 187.35 -250 185.7 -250 184 C-249.34 184 -248.68 184 -248 184 C-248 182.35 -248 180.7 -248 179 C-247.01 179 -246.02 179 -245 179 C-245 178.01 -245 177.02 -245 176 C-244.34 176 -243.68 176 -243 176 C-243 174.35 -243 172.7 -243 171 C-242.01 171 -241.02 171 -240 171 C-240 170.34 -240 169.68 -240 169 C-239.34 169 -238.68 169 -238 169 C-237.67 168.01 -237.34 167.02 -237 166 C-236.34 166 -235.68 166 -235 166 C-235 164.35 -235 162.7 -235 161 C-234.34 161 -233.68 161 -233 161 C-233 160.34 -233 159.68 -233 159 C-232.01 159 -231.02 159 -230 159 C-230 158.01 -230 157.02 -230 156 C-229.01 156 -228.02 156 -227 156 C-227 155.34 -227 154.68 -227 154 C-226.34 154 -225.68 154 -225 154 C-225 153.01 -225 152.02 -225 151 C-224.01 151 -223.02 151 -222 151 C-222 150.34 -222 149.68 -222 149 C-221.34 149 -220.68 149 -220 149 C-220 148.01 -220 147.02 -220 146 C-219.01 146 -218.02 146 -217 146 C-217 145.34 -217 144.68 -217 144 C-216.01 144 -215.02 144 -214 144 C-214 143.34 -214 142.68 -214 142 C-212.68 141.67 -211.36 141.34 -210 141 C-210 140.34 -210 139.68 -210 139 C-209.01 139 -208.02 139 -207 139 C-207 138.01 -207 137.02 -207 136 C-205.35 136 -203.7 136 -202 136 C-202 135.01 -202 134.02 -202 133 C-201.34 133 -200.68 133 -200 133 C-200 132.34 -200 131.68 -200 131 C-198.35 131 -196.7 131 -195 131 C-194.67 130.01 -194.34 129.02 -194 128 C-192.68 128 -191.36 128 -190 128 C-190 127.34 -190 126.68 -190 126 C-188.35 126 -186.7 126 -185 126 C-184.505 124.515 -184.505 124.515 -184 123 C-181.69 123 -179.38 123 -177 123 C-177 122.34 -177 121.68 -177 121 C-174.36 121 -171.72 121 -169 121 C-169 120.01 -169 119.02 -169 118 C-165.7 118 -162.4 118 -159 118 C-159 115.69 -159 113.38 -159 111 C-158.34 111 -157.68 111 -157 111 C-157 109.35 -157 107.7 -157 106 C-156.01 106 -155.02 106 -154 106 C-154 104.35 -154 102.7 -154 101 C-153.34 101 -152.68 101 -152 101 C-151.67 99.35 -151.34 97.7 -151 96 C-150.34 96 -149.68 96 -149 96 C-149 95.01 -149 94.02 -149 93 C-148.34 93 -147.68 93 -147 93 C-147 91.35 -147 89.7 -147 88 C-146.01 88 -145.02 88 -144 88 C-144 87.01 -144 86.02 -144 85 C-143.34 85 -142.68 85 -142 85 C-141.67 83.35 -141.34 81.7 -141 80 C-140.34 80 -139.68 80 -139 80 C-139 79.34 -139 78.68 -139 78 C-138.01 78 -137.02 78 -136 78 C-136 76.35 -136 74.7 -136 73 C-135.34 73 -134.68 73 -134 73 C-134 72.01 -134 71.02 -134 70 C-133.01 70 -132.02 70 -131 70 C-131 69.34 -131 68.68 -131 68 C-130.34 68 -129.68 68 -129 68 C-129 67.01 -129 66.02 -129 65 C-128.01 65 -127.02 65 -126 65 C-126 64.34 -126 63.68 -126 63 C-125.34 63 -124.68 63 -124 63 C-124 62.01 -124 61.02 -124 60 C-123.01 60 -122.02 60 -121 60 C-121 59.34 -121 58.68 -121 58 C-120.34 58 -119.68 58 -119 58 C-119 57.01 -119 56.02 -119 55 C-118.01 55 -117.02 55 -116 55 C-116 54.34 -116 53.68 -116 53 C-115.34 53 -114.68 53 -114 53 C-114 52.01 -114 51.02 -114 50 C-113.01 50 -112.02 50 -111 50 C-111 49.34 -111 48.68 -111 48 C-110.34 48 -109.68 48 -109 48 C-109 47.01 -109 46.02 -109 45 C-108.01 45 -107.02 45 -106 45 C-106 44.34 -106 43.68 -106 43 C-105.34 43 -104.68 43 -104 43 C-104 42.01 -104 41.02 -104 40 C-102.35 40 -100.7 40 -99 40 C-98.67 39.01 -98.34 38.02 -98 37 C-97.34 37 -96.68 37 -96 37 C-96 36.34 -96 35.68 -96 35 C-95.34 35 -94.68 35 -94 35 C-93.67 34.01 -93.34 33.02 -93 32 C-91.35 32 -89.7 32 -88 32 C-88 31.34 -88 30.68 -88 30 C-87.34 30 -86.68 30 -86 30 C-86 29.01 -86 28.02 -86 27 C-84.35 27 -82.7 27 -81 27 C-81 26.34 -81 25.68 -81 25 C-79.35 25 -77.7 25 -76 25 C-76 24.01 -76 23.02 -76 22 C-74.35 22 -72.7 22 -71 22 C-71 21.34 -71 20.68 -71 20 C-69.35 20 -67.7 20 -66 20 C-66 19.01 -66 18.02 -66 17 C-64.35 17 -62.7 17 -61 17 C-61 16.34 -61 15.68 -61 15 C-59.35 15 -57.7 15 -56 15 C-56 14.01 -56 13.02 -56 12 C-53.36 12 -50.72 12 -48 12 C-48 11.34 -48 10.68 -48 10 C-45.36 10 -42.72 10 -40 10 C-40 9.01 -40 8.02 -40 7 C-36.7 7 -33.4 7 -30 7 C-30 6.34 -30 5.68 -30 5 C-26.7 5 -23.4 5 -20 5 C-20 4.01 -20 3.02 -20 2 C-13.4 2 -6.8 2 0 2 C0 1.34 0 0.68 0 0 Z " fill="#12A6D4" transform="translate(291,2)"/>
<path d="M0 0 C4.62 0 9.24 0 14 0 C14 0.66 14 1.32 14 2 C16.31 2 18.62 2 21 2 C21 2.99 21 3.98 21 5 C21.99 5 22.98 5 24 5 C24 5.66 24 6.32 24 7 C24.99 7.33 25.98 7.66 27 8 C27 8.66 27 9.32 27 10 C27.66 10 28.32 10 29 10 C29 11.65 29 13.3 29 15 C29.99 15 30.98 15 32 15 C32 21.93 32 28.86 32 36 C31.01 36 30.02 36 29 36 C29 37.65 29 39.3 29 41 C28.34 41 27.68 41 27 41 C26.67 41.99 26.34 42.98 26 44 C25.34 44 24.68 44 24 44 C24 44.66 24 45.32 24 46 C22.35 46 20.7 46 19 46 C19 46.99 19 47.98 19 49 C18.01 49 17.02 49 16 49 C16 83.98 16 118.96 16 155 C15.34 155 14.68 155 14 155 C14 155.66 14 156.32 14 157 C13.01 157 12.02 157 11 157 C11 157.99 11 158.98 11 160 C10.34 160 9.68 160 9 160 C9 160.66 9 161.32 9 162 C8.01 162 7.02 162 6 162 C6 162.99 6 163.98 6 165 C5.34 165 4.68 165 4 165 C4 165.99 4 166.98 4 168 C3.01 168 2.02 168 1 168 C1 168.66 1 169.32 1 170 C0.34 170 -0.32 170 -1 170 C-1 170.99 -1 171.98 -1 173 C-1.99 173 -2.98 173 -4 173 C-4 173.66 -4 174.32 -4 175 C-4.66 175 -5.32 175 -6 175 C-6 175.99 -6 176.98 -6 178 C-6.99 178 -7.98 178 -9 178 C-9 178.66 -9 179.32 -9 180 C-9.66 180 -10.32 180 -11 180 C-11 180.99 -11 181.98 -11 183 C-11.99 183 -12.98 183 -14 183 C-14 183.66 -14 184.32 -14 185 C-14.66 185 -15.32 185 -16 185 C-16.33 185.99 -16.66 186.98 -17 188 C-17.66 188 -18.32 188 -19 188 C-19 188.66 -19 189.32 -19 190 C-19.66 190 -20.32 190 -21 190 C-21 254.35 -21 318.7 -21 385 C-21.99 385 -22.98 385 -24 385 C-24 385.66 -24 386.32 -24 387 C-28.62 387 -33.24 387 -38 387 C-38 386.34 -38 385.68 -38 385 C-38.66 385 -39.32 385 -40 385 C-40 318.01 -40 251.02 -40 182 C-39.34 182 -38.68 182 -38 182 C-37.67 181.01 -37.34 180.02 -37 179 C-36.34 179 -35.68 179 -35 179 C-35 178.34 -35 177.68 -35 177 C-34.01 177 -33.02 177 -32 177 C-32 176.01 -32 175.02 -32 174 C-31.34 174 -30.68 174 -30 174 C-30 173.34 -30 172.68 -30 172 C-29.01 172 -28.02 172 -27 172 C-27 171.01 -27 170.02 -27 169 C-26.34 169 -25.68 169 -25 169 C-25 168.34 -25 167.68 -25 167 C-24.01 167 -23.02 167 -22 167 C-22 166.01 -22 165.02 -22 164 C-21.34 164 -20.68 164 -20 164 C-20 163.34 -20 162.68 -20 162 C-19.01 162 -18.02 162 -17 162 C-17 161.01 -17 160.02 -17 159 C-16.34 159 -15.68 159 -15 159 C-15 158.34 -15 157.68 -15 157 C-14.01 157 -13.02 157 -12 157 C-12 156.01 -12 155.02 -12 154 C-11.34 154 -10.68 154 -10 154 C-10 153.01 -10 152.02 -10 151 C-9.01 151 -8.02 151 -7 151 C-7 150.34 -7 149.68 -7 149 C-6.34 149 -5.68 149 -5 149 C-5 148.01 -5 147.02 -5 146 C-4.01 146 -3.02 146 -2 146 C-2 113.99 -2 81.98 -2 49 C-2.99 49 -3.98 49 -5 49 C-5 48.01 -5 47.02 -5 46 C-6.32 46 -7.64 46 -9 46 C-9 45.34 -9 44.68 -9 44 C-9.99 44 -10.98 44 -12 44 C-12 42.35 -12 40.7 -12 39 C-12.99 39 -13.98 39 -15 39 C-15 38.01 -15 37.02 -15 36 C-15.66 36 -16.32 36 -17 36 C-17 29.07 -17 22.14 -17 15 C-16.34 15 -15.68 15 -15 15 C-15 13.35 -15 11.7 -15 10 C-14.01 10 -13.02 10 -12 10 C-12 9.01 -12 8.02 -12 7 C-11.34 7 -10.68 7 -10 7 C-10 6.34 -10 5.68 -10 5 C-9.01 5 -8.02 5 -7 5 C-7 4.01 -7 3.02 -7 2 C-4.69 2 -2.38 2 0 2 C0 1.34 0 0.68 0 0 Z " fill="#12A6D4" transform="translate(374,75)"/>
<path d="M0 0 C7.59 0 15.18 0 23 0 C23 0.99 23 1.98 23 3 C23.99 3 24.98 3 26 3 C26 3.66 26 4.32 26 5 C27.32 5.33 28.64 5.66 30 6 C30.495 8.475 30.495 8.475 31 11 C31.66 11 32.32 11 33 11 C33 11.66 33 12.32 33 13 C33.99 13 34.98 13 36 13 C36 19.93 36 26.86 36 34 C35.01 34 34.02 34 33 34 C33 35.65 33 37.3 33 39 C32.34 39 31.68 39 31 39 C30.67 39.99 30.34 40.98 30 42 C29.34 42 28.68 42 28 42 C28 42.66 28 43.32 28 44 C27.34 44 26.68 44 26 44 C26 44.99 26 45.98 26 47 C24.35 47 22.7 47 21 47 C21 64.49 21 81.98 21 100 C20.01 100 19.02 100 18 100 C18 101.65 18 103.3 18 105 C17.01 105 16.02 105 15 105 C15 105.66 15 106.32 15 107 C14.34 107 13.68 107 13 107 C13 107.99 13 108.98 13 110 C12.01 110 11.02 110 10 110 C10 110.99 10 111.98 10 113 C9.34 113 8.68 113 8 113 C8 113.66 8 114.32 8 115 C7.01 115 6.02 115 5 115 C5 115.99 5 116.98 5 118 C4.34 118 3.68 118 3 118 C3 118.66 3 119.32 3 120 C2.01 120 1.02 120 0 120 C0 120.99 0 121.98 0 123 C-0.66 123 -1.32 123 -2 123 C-2 123.66 -2 124.32 -2 125 C-2.99 125 -3.98 125 -5 125 C-5 125.99 -5 126.98 -5 128 C-5.66 128 -6.32 128 -7 128 C-7 128.66 -7 129.32 -7 130 C-7.99 130 -8.98 130 -10 130 C-10 130.99 -10 131.98 -10 133 C-10.66 133 -11.32 133 -12 133 C-12 133.66 -12 134.32 -12 135 C-12.99 135 -13.98 135 -15 135 C-15 135.99 -15 136.98 -15 138 C-15.66 138 -16.32 138 -17 138 C-17 138.66 -17 139.32 -17 140 C-17.99 140 -18.98 140 -20 140 C-20 140.99 -20 141.98 -20 143 C-20.66 143 -21.32 143 -22 143 C-22 143.66 -22 144.32 -22 145 C-22.99 145 -23.98 145 -25 145 C-25 145.99 -25 146.98 -25 148 C-25.99 148 -26.98 148 -28 148 C-28 148.66 -28 149.32 -28 150 C-28.66 150 -29.32 150 -30 150 C-30 150.99 -30 151.98 -30 153 C-30.99 153 -31.98 153 -33 153 C-33 153.66 -33 154.32 -33 155 C-33.66 155 -34.32 155 -35 155 C-35 155.99 -35 156.98 -35 158 C-35.99 158 -36.98 158 -38 158 C-38 158.99 -38 159.98 -38 161 C-38.66 161 -39.32 161 -40 161 C-40 161.66 -40 162.32 -40 163 C-40.99 163 -41.98 163 -43 163 C-43 216.46 -43 269.92 -43 325 C-43.66 325 -44.32 325 -45 325 C-45 327.31 -45 329.62 -45 332 C-50.28 332 -55.56 332 -61 332 C-61 272.6 -61 213.2 -61 152 C-60.34 152 -59.68 152 -59 152 C-59 151.34 -59 150.68 -59 150 C-58.01 150 -57.02 150 -56 150 C-56 149.01 -56 148.02 -56 147 C-55.34 147 -54.68 147 -54 147 C-53.67 146.01 -53.34 145.02 -53 144 C-52.34 144 -51.68 144 -51 144 C-51 143.34 -51 142.68 -51 142 C-50.34 142 -49.68 142 -49 142 C-48.67 141.01 -48.34 140.02 -48 139 C-47.34 139 -46.68 139 -46 139 C-46 138.34 -46 137.68 -46 137 C-45.34 137 -44.68 137 -44 137 C-43.67 136.01 -43.34 135.02 -43 134 C-42.34 134 -41.68 134 -41 134 C-41 133.34 -41 132.68 -41 132 C-40.34 132 -39.68 132 -39 132 C-38.67 131.01 -38.34 130.02 -38 129 C-37.34 129 -36.68 129 -36 129 C-36 128.34 -36 127.68 -36 127 C-35.01 127 -34.02 127 -33 127 C-33 126.01 -33 125.02 -33 124 C-32.34 124 -31.68 124 -31 124 C-31 123.34 -31 122.68 -31 122 C-30.01 122 -29.02 122 -28 122 C-28 121.01 -28 120.02 -28 119 C-27.34 119 -26.68 119 -26 119 C-26 118.34 -26 117.68 -26 117 C-25.01 117 -24.02 117 -23 117 C-23 116.01 -23 115.02 -23 114 C-22.34 114 -21.68 114 -21 114 C-21 113.34 -21 112.68 -21 112 C-20.01 112 -19.02 112 -18 112 C-18 111.01 -18 110.02 -18 109 C-17.34 109 -16.68 109 -16 109 C-16 108.34 -16 107.68 -16 107 C-15.01 107 -14.02 107 -13 107 C-13 106.01 -13 105.02 -13 104 C-12.34 104 -11.68 104 -11 104 C-11 103.34 -11 102.68 -11 102 C-10.01 102 -9.02 102 -8 102 C-8 101.01 -8 100.02 -8 99 C-7.34 99 -6.68 99 -6 99 C-6 98.01 -6 97.02 -6 96 C-5.01 96 -4.02 96 -3 96 C-3 95.34 -3 94.68 -3 94 C-2.34 94 -1.68 94 -1 94 C-0.505 92.515 -0.505 92.515 0 91 C0.66 91 1.32 91 2 91 C2 76.48 2 61.96 2 47 C0.35 47 -1.3 47 -3 47 C-3 46.01 -3 45.02 -3 44 C-3.99 44 -4.98 44 -6 44 C-6 43.34 -6 42.68 -6 42 C-6.66 42 -7.32 42 -8 42 C-8 41.01 -8 40.02 -8 39 C-8.99 39 -9.98 39 -11 39 C-11 37.35 -11 35.7 -11 34 C-11.66 34 -12.32 34 -13 34 C-13 28.06 -13 22.12 -13 16 C-12.34 16 -11.68 16 -11 16 C-11 14.35 -11 12.7 -11 11 C-10.01 11 -9.02 11 -8 11 C-8 10.01 -8 9.02 -8 8 C-7.34 8 -6.68 8 -6 8 C-6 7.01 -6 6.02 -6 5 C-5.01 5 -4.02 5 -3 5 C-3 4.34 -3 3.68 -3 3 C-2.34 3 -1.68 3 -1 3 C-0.67 2.01 -0.34 1.02 0 0 Z " fill="#13A6D4" transform="translate(423,130)"/>
<path d="M0 0 C7.26 0 14.52 0 22 0 C22 0.66 22 1.32 22 2 C23.65 2 25.3 2 27 2 C27 2.99 27 3.98 27 5 C27.66 5 28.32 5 29 5 C29 5.66 29 6.32 29 7 C29.99 7 30.98 7 32 7 C32 7.99 32 8.98 32 10 C32.66 10 33.32 10 34 10 C34 12.31 34 14.62 34 17 C34.99 17 35.98 17 37 17 C37 21.62 37 26.24 37 31 C36.01 31 35.02 31 34 31 C34 32.65 34 34.3 34 36 C33.34 36 32.68 36 32 36 C32 37.65 32 39.3 32 41 C31.01 41 30.02 41 29 41 C29 41.66 29 42.32 29 43 C28.34 43 27.68 43 27 43 C27 43.99 27 44.98 27 46 C25.35 46 23.7 46 22 46 C22 46.66 22 47.32 22 48 C21.01 48 20.02 48 19 48 C19 62.85 19 77.7 19 93 C19.99 93 20.98 93 22 93 C22 93.99 22 94.98 22 96 C22.66 96 23.32 96 24 96 C24 96.66 24 97.32 24 98 C24.99 98 25.98 98 27 98 C27 98.99 27 99.98 27 101 C27.66 101 28.32 101 29 101 C29 101.66 29 102.32 29 103 C29.99 103 30.98 103 32 103 C32 103.99 32 104.98 32 106 C32.66 106 33.32 106 34 106 C34 106.66 34 107.32 34 108 C34.99 108 35.98 108 37 108 C37 108.99 37 109.98 37 111 C37.66 111 38.32 111 39 111 C39 111.66 39 112.32 39 113 C39.99 113 40.98 113 42 113 C42 113.99 42 114.98 42 116 C42.66 116 43.32 116 44 116 C44 116.66 44 117.32 44 118 C44.99 118 45.98 118 47 118 C47 118.99 47 119.98 47 121 C47.66 121 48.32 121 49 121 C49 121.66 49 122.32 49 123 C49.99 123 50.98 123 52 123 C52 123.99 52 124.98 52 126 C52.66 126 53.32 126 54 126 C54 126.66 54 127.32 54 128 C54.99 128 55.98 128 57 128 C57 128.99 57 129.98 57 131 C57.99 131 58.98 131 60 131 C60 131.99 60 132.98 60 134 C60.66 134 61.32 134 62 134 C62 134.66 62 135.32 62 136 C62.99 136 63.98 136 65 136 C65 136.99 65 137.98 65 139 C65.66 139 66.32 139 67 139 C67 139.66 67 140.32 67 141 C67.99 141 68.98 141 70 141 C70 141.99 70 142.98 70 144 C70.66 144 71.32 144 72 144 C72 144.66 72 145.32 72 146 C72.99 146 73.98 146 75 146 C75 146.99 75 147.98 75 149 C75.66 149 76.32 149 77 149 C77 149.66 77 150.32 77 151 C77.99 151 78.98 151 80 151 C80 151.99 80 152.98 80 154 C80.66 154 81.32 154 82 154 C82 206.8 82 259.6 82 314 C81.34 314 80.68 314 80 314 C80 314.66 80 315.32 80 316 C75.38 316 70.76 316 66 316 C66 315.34 66 314.68 66 314 C65.34 314 64.68 314 64 314 C64 263.84 64 213.68 64 162 C63.01 162 62.02 162 61 162 C61 161.34 61 160.68 61 160 C60.34 160 59.68 160 59 160 C59 159.01 59 158.02 59 157 C58.01 157 57.02 157 56 157 C56 156.34 56 155.68 56 155 C55.34 155 54.68 155 54 155 C54 154.01 54 153.02 54 152 C53.01 152 52.02 152 51 152 C51 151.34 51 150.68 51 150 C50.34 150 49.68 150 49 150 C49 149.01 49 148.02 49 147 C48.01 147 47.02 147 46 147 C46 146.34 46 145.68 46 145 C45.01 144.67 44.02 144.34 43 144 C43 143.34 43 142.68 43 142 C42.34 142 41.68 142 41 142 C41 141.01 41 140.02 41 139 C40.01 139 39.02 139 38 139 C38 138.34 38 137.68 38 137 C37.34 137 36.68 137 36 137 C36 136.01 36 135.02 36 134 C35.01 134 34.02 134 33 134 C33 133.34 33 132.68 33 132 C32.34 132 31.68 132 31 132 C31 131.01 31 130.02 31 129 C30.01 129 29.02 129 28 129 C28 128.34 28 127.68 28 127 C27.34 127 26.68 127 26 127 C26 126.01 26 125.02 26 124 C25.01 124 24.02 124 23 124 C23 123.34 23 122.68 23 122 C22.34 122 21.68 122 21 122 C21 121.01 21 120.02 21 119 C20.01 119 19.02 119 18 119 C18 118.34 18 117.68 18 117 C17.34 117 16.68 117 16 117 C16 116.01 16 115.02 16 114 C15.01 114 14.02 114 13 114 C13 113.34 13 112.68 13 112 C12.34 112 11.68 112 11 112 C11 111.01 11 110.02 11 109 C10.01 109 9.02 109 8 109 C8 108.34 8 107.68 8 107 C7.34 107 6.68 107 6 107 C6 106.01 6 105.02 6 104 C5.01 104 4.02 104 3 104 C3 103.34 3 102.68 3 102 C1.515 101.505 1.515 101.505 0 101 C0 82.85 0 64.7 0 46 C-1.65 46 -3.3 46 -5 46 C-5 45.01 -5 44.02 -5 43 C-5.66 43 -6.32 43 -7 43 C-7 42.34 -7 41.68 -7 41 C-7.99 41 -8.98 41 -10 41 C-10 39.35 -10 37.7 -10 36 C-10.66 36 -11.32 36 -12 36 C-12 34.35 -12 32.7 -12 31 C-12.99 30.67 -13.98 30.34 -15 30 C-15.02698189 28.37509046 -15.04638757 26.75005367 -15.0625 25.125 C-15.07410156 24.22007812 -15.08570313 23.31515625 -15.09765625 22.3828125 C-15 20 -15 20 -14 18 C-13.34 18 -12.68 18 -12 18 C-12 16.02 -12 14.04 -12 12 C-11.34 12 -10.68 12 -10 12 C-10 10.35 -10 8.7 -10 7 C-9.01 7 -8.02 7 -7 7 C-7 6.34 -7 5.68 -7 5 C-6.34 5 -5.68 5 -5 5 C-5 4.01 -5 3.02 -5 2 C-3.35 2 -1.7 2 0 2 C0 1.34 0 0.68 0 0 Z " fill="#12A6D5" transform="translate(245,146)"/>
<path d="M0 0 C3.63 0 7.26 0 11 0 C11 0.99 11 1.98 11 3 C13.64 3 16.28 3 19 3 C19 3.66 19 4.32 19 5 C20.65 5 22.3 5 24 5 C24 5.99 24 6.98 24 8 C24.66 8 25.32 8 26 8 C26 9.65 26 11.3 26 13 C26.99 13 27.98 13 29 13 C29 13.66 29 14.32 29 15 C29.66 15 30.32 15 31 15 C31 21.93 31 28.86 31 36 C30.34 36 29.68 36 29 36 C29 37.65 29 39.3 29 41 C28.01 41 27.02 41 26 41 C26 41.99 26 42.98 26 44 C25.34 44 24.68 44 24 44 C24 44.66 24 45.32 24 46 C23.01 46 22.02 46 21 46 C20.67 46.99 20.34 47.98 20 49 C18.68 49 17.36 49 16 49 C16 55.27 16 61.54 16 68 C16.99 68 17.98 68 19 68 C19 68.99 19 69.98 19 71 C19.66 71 20.32 71 21 71 C21 71.66 21 72.32 21 73 C21.99 73 22.98 73 24 73 C24 73.99 24 74.98 24 76 C24.66 76 25.32 76 26 76 C26 76.66 26 77.32 26 78 C26.99 78 27.98 78 29 78 C29 78.99 29 79.98 29 81 C29.66 81 30.32 81 31 81 C31 81.66 31 82.32 31 83 C31.99 83.33 32.98 83.66 34 84 C34 84.66 34 85.32 34 86 C34.66 86 35.32 86 36 86 C36 86.66 36 87.32 36 88 C36.99 88.33 37.98 88.66 39 89 C39 89.66 39 90.32 39 91 C39.66 91 40.32 91 41 91 C41 91.66 41 92.32 41 93 C41.99 93 42.98 93 44 93 C44 93.99 44 94.98 44 96 C44.66 96 45.32 96 46 96 C46 96.99 46 97.98 46 99 C46.99 99 47.98 99 49 99 C49 99.66 49 100.32 49 101 C49.66 101 50.32 101 51 101 C51 101.99 51 102.98 51 104 C51.99 104 52.98 104 54 104 C54 104.66 54 105.32 54 106 C54.66 106 55.32 106 56 106 C56 106.99 56 107.98 56 109 C56.99 109 57.98 109 59 109 C59 109.66 59 110.32 59 111 C59.66 111 60.32 111 61 111 C61 111.99 61 112.98 61 114 C61.99 114 62.98 114 64 114 C64 114.66 64 115.32 64 116 C64.99 116 65.98 116 67 116 C67 116.99 67 117.98 67 119 C67.66 119 68.32 119 69 119 C69 119.66 69 120.32 69 121 C69.99 121 70.98 121 72 121 C72 121.99 72 122.98 72 124 C72.66 124 73.32 124 74 124 C74 124.66 74 125.32 74 126 C74.99 126 75.98 126 77 126 C77 126.99 77 127.98 77 129 C77.66 129 78.32 129 79 129 C79 129.66 79 130.32 79 131 C79.99 131.33 80.98 131.66 82 132 C82 132.66 82 133.32 82 134 C82.66 134 83.32 134 84 134 C84 134.66 84 135.32 84 136 C84.99 136 85.98 136 87 136 C87 136.99 87 137.98 87 139 C87.66 139 88.32 139 89 139 C89 139.99 89 140.98 89 142 C89.99 142 90.98 142 92 142 C92 142.66 92 143.32 92 144 C92.66 144 93.32 144 94 144 C94 144.99 94 145.98 94 147 C94.99 147 95.98 147 97 147 C97 147.66 97 148.32 97 149 C97.66 149 98.32 149 99 149 C99 149.99 99 150.98 99 152 C99.99 152 100.98 152 102 152 C102 152.66 102 153.32 102 154 C102.66 154 103.32 154 104 154 C104 154.99 104 155.98 104 157 C104.99 157 105.98 157 107 157 C107 197.26 107 237.52 107 279 C106.01 279 105.02 279 104 279 C104 279.66 104 280.32 104 281 C99.71 281 95.42 281 91 281 C91 280.34 91 279.68 91 279 C90.01 279 89.02 279 88 279 C88 241.38 88 203.76 88 165 C87.34 165 86.68 165 86 165 C86 164.34 86 163.68 86 163 C85.01 162.67 84.02 162.34 83 162 C83 161.34 83 160.68 83 160 C82.34 160 81.68 160 81 160 C81 159.34 81 158.68 81 158 C80.01 157.67 79.02 157.34 78 157 C78 156.34 78 155.68 78 155 C77.34 155 76.68 155 76 155 C76 154.01 76 153.02 76 152 C75.01 152 74.02 152 73 152 C73 151.34 73 150.68 73 150 C72.34 150 71.68 150 71 150 C71 149.01 71 148.02 71 147 C70.01 147 69.02 147 68 147 C68 146.34 68 145.68 68 145 C67.34 145 66.68 145 66 145 C66 144.01 66 143.02 66 142 C65.01 142 64.02 142 63 142 C63 141.34 63 140.68 63 140 C62.34 140 61.68 140 61 140 C61 139.01 61 138.02 61 137 C60.01 137 59.02 137 58 137 C58 136.34 58 135.68 58 135 C57.34 135 56.68 135 56 135 C56 134.01 56 133.02 56 132 C55.01 132 54.02 132 53 132 C53 131.34 53 130.68 53 130 C52.01 130 51.02 130 50 130 C50 129.01 50 128.02 50 127 C49.34 127 48.68 127 48 127 C48 126.34 48 125.68 48 125 C47.01 125 46.02 125 45 125 C45 124.01 45 123.02 45 122 C44.34 122 43.68 122 43 122 C43 121.34 43 120.68 43 120 C42.01 120 41.02 120 40 120 C40 119.01 40 118.02 40 117 C39.34 117 38.68 117 38 117 C38 116.34 38 115.68 38 115 C37.01 114.67 36.02 114.34 35 114 C35 113.34 35 112.68 35 112 C34.34 112 33.68 112 33 112 C33 111.34 33 110.68 33 110 C32.01 109.67 31.02 109.34 30 109 C30 108.34 30 107.68 30 107 C29.34 107 28.68 107 28 107 C28 106.01 28 105.02 28 104 C27.01 104 26.02 104 25 104 C25 103.34 25 102.68 25 102 C24.34 102 23.68 102 23 102 C23 101.01 23 100.02 23 99 C22.01 99 21.02 99 20 99 C20 98.34 20 97.68 20 97 C19.34 97 18.68 97 18 97 C18 96.01 18 95.02 18 94 C17.01 94 16.02 94 15 94 C15 93.34 15 92.68 15 92 C14.34 92 13.68 92 13 92 C13 91.01 13 90.02 13 89 C12.01 89 11.02 89 10 89 C10 88.34 10 87.68 10 87 C9.34 87 8.68 87 8 87 C8 86.01 8 85.02 8 84 C7.01 84 6.02 84 5 84 C5 83.34 5 82.68 5 82 C4.01 82 3.02 82 2 82 C2 81.01 2 80.02 2 79 C1.34 79 0.68 79 0 79 C0 78.34 0 77.68 0 77 C-0.99 77 -1.98 77 -3 77 C-3 67.76 -3 58.52 -3 49 C-4.32 48.67 -5.64 48.34 -7 48 C-7 47.34 -7 46.68 -7 46 C-7.99 46 -8.98 46 -10 46 C-10 45.34 -10 44.68 -10 44 C-10.99 44 -11.98 44 -13 44 C-13 43.01 -13 42.02 -13 41 C-13.66 41 -14.32 41 -15 41 C-15 39.35 -15 37.7 -15 36 C-15.99 36 -16.98 36 -18 36 C-18 29.07 -18 22.14 -18 15 C-17.01 15 -16.02 15 -15 15 C-15 13.35 -15 11.7 -15 10 C-14.34 10 -13.68 10 -13 10 C-13 9.34 -13 8.68 -13 8 C-12.01 8 -11.02 8 -10 8 C-10 7.01 -10 6.02 -10 5 C-8.35 5 -6.7 5 -5 5 C-5 4.34 -5 3.68 -5 3 C-3.35 3 -1.7 3 0 3 C0 2.01 0 1.02 0 0 Z " fill="#12A6D5" transform="translate(195,181)"/>
<path d="M0 0 C4.62 0 9.24 0 14 0 C14 0.99 14 1.98 14 3 C15.65 3 17.3 3 19 3 C19 3.66 19 4.32 19 5 C20.65 5 22.3 5 24 5 C24 5.99 24 6.98 24 8 C24.66 8 25.32 8 26 8 C26 8.66 26 9.32 26 10 C26.99 10 27.98 10 29 10 C29 11.65 29 13.3 29 15 C29.66 15 30.32 15 31 15 C31 21.27 31 27.54 31 34 C30.34 34 29.68 34 29 34 C29 35.65 29 37.3 29 39 C28.01 39 27.02 39 26 39 C26 40.65 26 42.3 26 44 C25.34 44 24.68 44 24 44 C24 44.66 24 45.32 24 46 C22.35 46 20.7 46 19 46 C19 46.99 19 47.98 19 49 C16.36 49 13.72 49 11 49 C11 49.66 11 50.32 11 51 C8.36 51 5.72 51 3 51 C3 50.34 3 49.68 3 49 C0.69 49 -1.62 49 -4 49 C-4 49.66 -4 50.32 -4 51 C-4.99 51 -5.98 51 -7 51 C-7 51.99 -7 52.98 -7 54 C-7.66 54 -8.32 54 -9 54 C-9 54.66 -9 55.32 -9 56 C-9.99 56 -10.98 56 -12 56 C-12 56.99 -12 57.98 -12 59 C-12.66 59 -13.32 59 -14 59 C-14 59.99 -14 60.98 -14 62 C-14.99 62 -15.98 62 -17 62 C-17 62.66 -17 63.32 -17 64 C-17.66 64 -18.32 64 -19 64 C-19 64.99 -19 65.98 -19 67 C-19.99 67 -20.98 67 -22 67 C-22 67.66 -22 68.32 -22 69 C-22.66 69 -23.32 69 -24 69 C-24 69.99 -24 70.98 -24 72 C-24.99 72 -25.98 72 -27 72 C-27 72.66 -27 73.32 -27 74 C-27.66 74 -28.32 74 -29 74 C-29 74.99 -29 75.98 -29 77 C-29.99 77 -30.98 77 -32 77 C-32 77.66 -32 78.32 -32 79 C-32.66 79 -33.32 79 -34 79 C-34.495 80.485 -34.495 80.485 -35 82 C-35.66 82 -36.32 82 -37 82 C-37 82.66 -37 83.32 -37 84 C-37.66 84 -38.32 84 -39 84 C-39 84.99 -39 85.98 -39 87 C-39.99 87 -40.98 87 -42 87 C-42 87.66 -42 88.32 -42 89 C-42.66 89 -43.32 89 -44 89 C-44 89.99 -44 90.98 -44 92 C-44.99 92 -45.98 92 -47 92 C-47 92.66 -47 93.32 -47 94 C-47.99 94 -48.98 94 -50 94 C-50 94.99 -50 95.98 -50 97 C-50.66 97 -51.32 97 -52 97 C-52 97.66 -52 98.32 -52 99 C-52.99 99 -53.98 99 -55 99 C-55 99.99 -55 100.98 -55 102 C-55.66 102 -56.32 102 -57 102 C-57 102.66 -57 103.32 -57 104 C-57.99 104 -58.98 104 -60 104 C-60 104.99 -60 105.98 -60 107 C-60.66 107 -61.32 107 -62 107 C-62 107.99 -62 108.98 -62 110 C-62.99 110 -63.98 110 -65 110 C-65 110.66 -65 111.32 -65 112 C-65.66 112 -66.32 112 -67 112 C-67 112.99 -67 113.98 -67 115 C-67.99 115 -68.98 115 -70 115 C-70 115.66 -70 116.32 -70 117 C-70.66 117 -71.32 117 -72 117 C-72 117.99 -72 118.98 -72 120 C-72.99 120 -73.98 120 -75 120 C-75 120.66 -75 121.32 -75 122 C-75.66 122 -76.32 122 -77 122 C-77 122.99 -77 123.98 -77 125 C-77.99 125 -78.98 125 -80 125 C-80 125.66 -80 126.32 -80 127 C-80.66 127 -81.32 127 -82 127 C-82 160.33 -82 193.66 -82 228 C-82.99 228 -83.98 228 -85 228 C-85 229.65 -85 231.3 -85 233 C-89.29 233 -93.58 233 -98 233 C-98 232.34 -98 231.68 -98 231 C-98.99 231 -99.98 231 -101 231 C-101 194.04 -101 157.08 -101 119 C-100.01 119 -99.02 119 -98 119 C-98 118.01 -98 117.02 -98 116 C-97.34 116 -96.68 116 -96 116 C-96 115.34 -96 114.68 -96 114 C-95.01 114 -94.02 114 -93 114 C-93 113.01 -93 112.02 -93 111 C-92.34 111 -91.68 111 -91 111 C-91 110.34 -91 109.68 -91 109 C-90.01 109 -89.02 109 -88 109 C-88 108.01 -88 107.02 -88 106 C-87.34 106 -86.68 106 -86 106 C-86 105.34 -86 104.68 -86 104 C-85.01 104 -84.02 104 -83 104 C-83 103.01 -83 102.02 -83 101 C-82.34 101 -81.68 101 -81 101 C-81 100.34 -81 99.68 -81 99 C-80.01 99 -79.02 99 -78 99 C-78 98.01 -78 97.02 -78 96 C-77.34 96 -76.68 96 -76 96 C-76 95.34 -76 94.68 -76 94 C-75.01 94 -74.02 94 -73 94 C-73 93.01 -73 92.02 -73 91 C-72.34 91 -71.68 91 -71 91 C-71 90.01 -71 89.02 -71 88 C-70.01 88 -69.02 88 -68 88 C-68 87.34 -68 86.68 -68 86 C-67.34 86 -66.68 86 -66 86 C-65.505 84.515 -65.505 84.515 -65 83 C-64.34 83 -63.68 83 -63 83 C-63 82.34 -63 81.68 -63 81 C-62.34 81 -61.68 81 -61 81 C-60.505 79.515 -60.505 79.515 -60 78 C-59.34 78 -58.68 78 -58 78 C-58 77.34 -58 76.68 -58 76 C-57.01 76 -56.02 76 -55 76 C-55 75.01 -55 74.02 -55 73 C-54.34 73 -53.68 73 -53 73 C-53 72.34 -53 71.68 -53 71 C-52.01 71 -51.02 71 -50 71 C-50 70.01 -50 69.02 -50 68 C-49.34 68 -48.68 68 -48 68 C-48 67.34 -48 66.68 -48 66 C-47.01 66 -46.02 66 -45 66 C-45 65.01 -45 64.02 -45 63 C-44.34 63 -43.68 63 -43 63 C-43 62.34 -43 61.68 -43 61 C-42.01 61 -41.02 61 -40 61 C-40 60.01 -40 59.02 -40 58 C-39.34 58 -38.68 58 -38 58 C-38 57.34 -38 56.68 -38 56 C-37.01 56 -36.02 56 -35 56 C-35 55.01 -35 54.02 -35 53 C-34.34 53 -33.68 53 -33 53 C-33 52.34 -33 51.68 -33 51 C-32.01 51 -31.02 51 -30 51 C-30 50.01 -30 49.02 -30 48 C-29.34 48 -28.68 48 -28 48 C-28 47.01 -28 46.02 -28 45 C-27.01 45 -26.02 45 -25 45 C-25 44.34 -25 43.68 -25 43 C-24.34 43 -23.68 43 -23 43 C-23 42.01 -23 41.02 -23 40 C-22.01 40 -21.02 40 -20 40 C-20 39.34 -20 38.68 -20 38 C-19.34 38 -18.68 38 -18 38 C-18 30.41 -18 22.82 -18 15 C-17.01 15 -16.02 15 -15 15 C-15 13.35 -15 11.7 -15 10 C-14.34 10 -13.68 10 -13 10 C-13 9.34 -13 8.68 -13 8 C-12.01 8 -11.02 8 -10 8 C-10 7.01 -10 6.02 -10 5 C-9.01 5 -8.02 5 -7 5 C-7 4.34 -7 3.68 -7 3 C-4.69 3 -2.38 3 0 3 C0 2.01 0 1.02 0 0 Z " fill="#12A6D5" transform="translate(488,229)"/>
<path d="M0 0 C14.52 0 29.04 0 44 0 C44 0.99 44 1.98 44 3 C48.29 3 52.58 3 57 3 C57 3.66 57 4.32 57 5 C60.3 5 63.6 5 67 5 C67 5.99 67 6.98 67 8 C69.64 8 72.28 8 75 8 C75 8.66 75 9.32 75 10 C76.65 10 78.3 10 80 10 C80 10.99 80 11.98 80 13 C82.31 13 84.62 13 87 13 C87 13.66 87 14.32 87 15 C87.99 15 88.98 15 90 15 C90 15.99 90 16.98 90 18 C90.66 18 91.32 18 92 18 C92 18.99 92 19.98 92 21 C89.36 21 86.72 21 84 21 C84 20.34 84 19.68 84 19 C74.76 19 65.52 19 56 19 C56 18.01 56 17.02 56 16 C53.03 16 50.06 16 47 16 C47 16.99 47 17.98 47 19 C37.76 19 28.52 19 19 19 C19 19.66 19 20.32 19 21 C14.71 21 10.42 21 6 21 C6 21.99 6 22.98 6 24 C2.7 24 -0.6 24 -4 24 C-4 24.66 -4 25.32 -4 26 C-6.31 26 -8.62 26 -11 26 C-11 26.99 -11 27.98 -11 29 C-13.64 29 -16.28 29 -19 29 C-19 29.66 -19 30.32 -19 31 C-20.65 31 -22.3 31 -24 31 C-24 31.99 -24 32.98 -24 34 C-25.65 34 -27.3 34 -29 34 C-29 34.66 -29 35.32 -29 36 C-31.64 36 -34.28 36 -37 36 C-37 36.99 -37 37.98 -37 39 C-38.65 39 -40.3 39 -42 39 C-42 39.66 -42 40.32 -42 41 C-42.66 41 -43.32 41 -44 41 C-44.33 41.99 -44.66 42.98 -45 44 C-46.32 44 -47.64 44 -49 44 C-49 44.66 -49 45.32 -49 46 C-50.65 46 -52.3 46 -54 46 C-54 46.99 -54 47.98 -54 49 C-54.99 49 -55.98 49 -57 49 C-57 49.66 -57 50.32 -57 51 C-58.65 51 -60.3 51 -62 51 C-62 51.99 -62 52.98 -62 54 C-62.66 54 -63.32 54 -64 54 C-64 54.99 -64 55.98 -64 57 C-65.65 57 -67.3 57 -69 57 C-69 57.66 -69 58.32 -69 59 C-69.99 59 -70.98 59 -72 59 C-72 59.99 -72 60.98 -72 62 C-72.66 62 -73.32 62 -74 62 C-74 62.66 -74 63.32 -74 64 C-74.99 64 -75.98 64 -77 64 C-77 64.99 -77 65.98 -77 67 C-77.99 67 -78.98 67 -80 67 C-80 67.66 -80 68.32 -80 69 C-81.65 69 -83.3 69 -85 69 C-85 69.99 -85 70.98 -85 72 C-85.66 72 -86.32 72 -87 72 C-87 72.66 -87 73.32 -87 74 C-87.99 74 -88.98 74 -90 74 C-90 74.99 -90 75.98 -90 77 C-90.66 77 -91.32 77 -92 77 C-92 77.66 -92 78.32 -92 79 C-92.99 79 -93.98 79 -95 79 C-95 79.99 -95 80.98 -95 82 C-95.66 82 -96.32 82 -97 82 C-97 82.66 -97 83.32 -97 84 C-97.99 84 -98.98 84 -100 84 C-100 85.65 -100 87.3 -100 89 C-100.66 89 -101.32 89 -102 89 C-102 89.99 -102 90.98 -102 92 C-102.99 92 -103.98 92 -105 92 C-105 92.66 -105 93.32 -105 94 C-105.66 94 -106.32 94 -107 94 C-107 94.99 -107 95.98 -107 97 C-107.99 97 -108.98 97 -110 97 C-110 98.65 -110 100.3 -110 102 C-110.66 102 -111.32 102 -112 102 C-112.495 103.485 -112.495 103.485 -113 105 C-113.66 105 -114.32 105 -115 105 C-115 106.32 -115 107.64 -115 109 C-113.35 109 -111.7 109 -110 109 C-110 109.99 -110 110.98 -110 112 C-110.66 112 -111.32 112 -112 112 C-112.495 113.485 -112.495 113.485 -113 115 C-115.97 115 -118.94 115 -122 115 C-122 115.66 -122 116.32 -122 117 C-125.63 117 -129.26 117 -133 117 C-133 117.99 -133 118.98 -133 120 C-134.65 120 -136.3 120 -138 120 C-138 120.66 -138 121.32 -138 122 C-139.65 122 -141.3 122 -143 122 C-143 122.99 -143 123.98 -143 125 C-145.31 125 -147.62 125 -150 125 C-150 125.66 -150 126.32 -150 127 C-150.99 127 -151.98 127 -153 127 C-153 127.99 -153 128.98 -153 130 C-154.65 130 -156.3 130 -158 130 C-158 130.66 -158 131.32 -158 132 C-158.66 132 -159.32 132 -160 132 C-160 132.99 -160 133.98 -160 135 C-161.65 135 -163.3 135 -165 135 C-165 135.66 -165 136.32 -165 137 C-165.99 137 -166.98 137 -168 137 C-168 137.99 -168 138.98 -168 140 C-168.99 140 -169.98 140 -171 140 C-171 140.66 -171 141.32 -171 142 C-171.66 142 -172.32 142 -173 142 C-173 142.99 -173 143.98 -173 145 C-173.99 145 -174.98 145 -176 145 C-176 145.66 -176 146.32 -176 147 C-176.66 147 -177.32 147 -178 147 C-178 147.99 -178 148.98 -178 150 C-178.99 150 -179.98 150 -181 150 C-181 150.99 -181 151.98 -181 153 C-181.66 153 -182.32 153 -183 153 C-183 153.66 -183 154.32 -183 155 C-183.99 155 -184.98 155 -186 155 C-186 156.65 -186 158.3 -186 160 C-186.66 160 -187.32 160 -188 160 C-188 160.99 -188 161.98 -188 163 C-188.99 163 -189.98 163 -191 163 C-191 163.66 -191 164.32 -191 165 C-191.66 165 -192.32 165 -193 165 C-193 166.65 -193 168.3 -193 170 C-193.99 170 -194.98 170 -196 170 C-196 171.65 -196 173.3 -196 175 C-196.66 175 -197.32 175 -198 175 C-198 176.65 -198 178.3 -198 180 C-198.99 180 -199.98 180 -201 180 C-201 182.31 -201 184.62 -201 187 C-201.66 187 -202.32 187 -203 187 C-203 189.97 -203 192.94 -203 196 C-203.99 196 -204.98 196 -206 196 C-206 197.65 -206 199.3 -206 201 C-206.99 201 -207.98 201 -209 201 C-209 192.09 -209 183.18 -209 174 C-208.34 174 -207.68 174 -207 174 C-207 171.69 -207 169.38 -207 167 C-206.01 167 -205.02 167 -204 167 C-204 164.36 -204 161.72 -204 159 C-203.34 159 -202.68 159 -202 159 C-202 157.35 -202 155.7 -202 154 C-201.01 154 -200.02 154 -199 154 C-199 152.35 -199 150.7 -199 149 C-198.34 149 -197.68 149 -197 149 C-197 148.34 -197 147.68 -197 147 C-196.01 147 -195.02 147 -194 147 C-194 145.35 -194 143.7 -194 142 C-193.34 142 -192.68 142 -192 142 C-192 141.01 -192 140.02 -192 139 C-191.01 139 -190.02 139 -189 139 C-189 138.34 -189 137.68 -189 137 C-188.34 137 -187.68 137 -187 137 C-187 136.01 -187 135.02 -187 134 C-186.01 134 -185.02 134 -184 134 C-184 133.01 -184 132.02 -184 131 C-183.34 131 -182.68 131 -182 131 C-182 130.34 -182 129.68 -182 129 C-181.01 129 -180.02 129 -179 129 C-179 128.01 -179 127.02 -179 126 C-178.01 126 -177.02 126 -176 126 C-176 125.34 -176 124.68 -176 124 C-174.35 124 -172.7 124 -171 124 C-171 123.01 -171 122.02 -171 121 C-170.34 121 -169.68 121 -169 121 C-169 120.34 -169 119.68 -169 119 C-167.35 119 -165.7 119 -164 119 C-164 118.01 -164 117.02 -164 116 C-162.35 116 -160.7 116 -159 116 C-159 115.34 -159 114.68 -159 114 C-156.36 114 -153.72 114 -151 114 C-151 113.01 -151 112.02 -151 111 C-147.7 111 -144.4 111 -141 111 C-141 110.34 -141 109.68 -141 109 C-133.41 109 -125.82 109 -118 109 C-118 105.7 -118 102.4 -118 99 C-117.34 99 -116.68 99 -116 99 C-116 97.35 -116 95.7 -116 94 C-115.01 94 -114.02 94 -113 94 C-113 91.36 -113 88.72 -113 86 C-112.34 86 -111.68 86 -111 86 C-111 84.35 -111 82.7 -111 81 C-110.01 81 -109.02 81 -108 81 C-108 79.35 -108 77.7 -108 76 C-107.34 76 -106.68 76 -106 76 C-106 74.35 -106 72.7 -106 71 C-105.01 71 -104.02 71 -103 71 C-103 70.01 -103 69.02 -103 68 C-102.34 68 -101.68 68 -101 68 C-101 66.35 -101 64.7 -101 63 C-100.01 63 -99.02 63 -98 63 C-98 62.34 -98 61.68 -98 61 C-97.34 61 -96.68 61 -96 61 C-96 59.35 -96 57.7 -96 56 C-95.01 56 -94.02 56 -93 56 C-93 55.01 -93 54.02 -93 53 C-92.34 53 -91.68 53 -91 53 C-91 52.34 -91 51.68 -91 51 C-90.01 51 -89.02 51 -88 51 C-88 50.01 -88 49.02 -88 48 C-87.01 48 -86.02 48 -85 48 C-85 47.34 -85 46.68 -85 46 C-84.34 46 -83.68 46 -83 46 C-83 45.01 -83 44.02 -83 43 C-82.01 43 -81.02 43 -80 43 C-80 42.01 -80 41.02 -80 40 C-79.34 40 -78.68 40 -78 40 C-78 39.34 -78 38.68 -78 38 C-77.01 38 -76.02 38 -75 38 C-75 37.01 -75 36.02 -75 35 C-74.34 35 -73.68 35 -73 35 C-73 34.34 -73 33.68 -73 33 C-72.01 33 -71.02 33 -70 33 C-70 32.01 -70 31.02 -70 30 C-69.34 30 -68.68 30 -68 30 C-68 29.34 -68 28.68 -68 28 C-66.35 28 -64.7 28 -63 28 C-63 27.01 -63 26.02 -63 25 C-62.01 25 -61.02 25 -60 25 C-60 24.34 -60 23.68 -60 23 C-58.35 23 -56.7 23 -55 23 C-55 22.01 -55 21.02 -55 20 C-54.01 20 -53.02 20 -52 20 C-52 19.34 -52 18.68 -52 18 C-50.68 18 -49.36 18 -48 18 C-48 17.01 -48 16.02 -48 15 C-46.35 15 -44.7 15 -43 15 C-43 14.34 -43 13.68 -43 13 C-40.36 13 -37.72 13 -35 13 C-35 12.01 -35 11.02 -35 10 C-33.35 10 -31.7 10 -30 10 C-30 9.34 -30 8.68 -30 8 C-27.36 8 -24.72 8 -22 8 C-22 7.01 -22 6.02 -22 5 C-18.7 5 -15.4 5 -12 5 C-12 4.34 -12 3.68 -12 3 C-8.04 3 -4.08 3 0 3 C0 2.01 0 1.02 0 0 Z " fill="#12A6D4" transform="translate(288,47)"/>
<path d="M0 0 C18.81 0 37.62 0 57 0 C57 7.92 57 15.84 57 24 C46.11 24 35.22 24 24 24 C24 25.32 24 26.64 24 28 C33.9 28 43.8 28 54 28 C54 34.93 54 41.86 54 49 C44.1 49 34.2 49 24 49 C24 51.31 24 53.62 24 56 C35.55 56 47.1 56 59 56 C59 62.93 59 69.86 59 77 C38.87 77 18.74 77 -2 77 C-2 52.58 -2 28.16 -2 3 C-1.34 3 -0.68 3 0 3 C0 2.01 0 1.02 0 0 Z " fill="#FFFFFF" transform="translate(321,507)"/>
<path d="M0 0 C19.47 0 38.94 0 59 0 C59 7.92 59 15.84 59 24 C48.11 24 37.22 24 26 24 C26 25.32 26 26.64 26 28 C35.24 28 44.48 28 54 28 C54 34.93 54 41.86 54 49 C44.76 49 35.52 49 26 49 C26 51.31 26 53.62 26 56 C37.55 56 49.1 56 61 56 C61 62.93 61 69.86 61 77 C40.87 77 20.74 77 0 77 C0 51.59 0 26.18 0 0 Z " fill="#FFFFFF" transform="translate(190,507)"/>
<path d="M0 0 C10.23 0 20.46 0 31 0 C31 0.99 31 1.98 31 3 C33.64 3 36.28 3 39 3 C39 3.66 39 4.32 39 5 C40.65 5 42.3 5 44 5 C44 6.98 44 8.96 44 11 C43.01 11 42.02 11 41 11 C41 12.65 41 14.3 41 16 C40.34 16 39.68 16 39 16 C39 18.64 39 21.28 39 24 C38.01 24 37.02 24 36 24 C36 24.66 36 25.32 36 26 C34.02 26 32.04 26 30 26 C30 25.34 30 24.68 30 24 C27.69 24 25.38 24 23 24 C23 23.01 23 22.02 23 21 C19.04 21 15.08 21 11 21 C11 23.31 11 25.62 11 28 C15.29 28 19.58 28 24 28 C24 28.66 24 29.32 24 30 C26.31 30 28.62 30 31 30 C31 30.99 31 31.98 31 33 C32.65 33 34.3 33 36 33 C36 33.66 36 34.32 36 35 C36.99 35 37.98 35 39 35 C39 35.99 39 36.98 39 38 C40.65 38.66 42.3 39.32 44 40 C44 40.99 44 41.98 44 43 C44.66 43 45.32 43 46 43 C46 49.27 46 55.54 46 62 C45.34 62 44.68 62 44 62 C44 63.65 44 65.3 44 67 C43.01 67 42.02 67 41 67 C41 67.66 41 68.32 41 69 C40.34 69 39.68 69 39 69 C39 69.99 39 70.98 39 72 C38.01 72 37.02 72 36 72 C36 72.66 36 73.32 36 74 C34.35 74 32.7 74 31 74 C31 74.99 31 75.98 31 77 C28.69 77 26.38 77 24 77 C24 77.66 24 78.32 24 79 C16.08 79 8.16 79 0 79 C0 78.34 0 77.68 0 77 C-3.3 77 -6.6 77 -10 77 C-10 76.01 -10 75.02 -10 74 C-11.65 74 -13.3 74 -15 74 C-15 73.34 -15 72.68 -15 72 C-15.99 72 -16.98 72 -18 72 C-18 69.03 -18 66.06 -18 63 C-17.01 63 -16.02 63 -15 63 C-15 61.35 -15 59.7 -15 58 C-14.34 58 -13.68 58 -13 58 C-13 55.69 -13 53.38 -13 51 C-11.02 51 -9.04 51 -7 51 C-7 51.66 -7 52.32 -7 53 C-4.36 53 -1.72 53 1 53 C1 53.99 1 54.98 1 56 C7.27 56 13.54 56 20 56 C20 55.34 20 54.68 20 54 C19.34 54 18.68 54 18 54 C18 53.01 18 52.02 18 51 C15.36 51 12.72 51 10 51 C10 50.34 10 49.68 10 49 C6.7 49 3.4 49 0 49 C0 48.01 0 47.02 0 46 C-2.64 46 -5.28 46 -8 46 C-8 45.34 -8 44.68 -8 44 C-8.66 44 -9.32 44 -10 44 C-10 43.01 -10 42.02 -10 41 C-10.99 41 -11.98 41 -13 41 C-13 40.34 -13 39.68 -13 39 C-13.66 39 -14.32 39 -15 39 C-15 37.35 -15 35.7 -15 34 C-15.99 34 -16.98 34 -18 34 C-18 28.72 -18 23.44 -18 18 C-17.01 18 -16.02 18 -15 18 C-15 16.35 -15 14.7 -15 13 C-14.34 13 -13.68 13 -13 13 C-12.67 11.35 -12.34 9.7 -12 8 C-11.34 8 -10.68 8 -10 8 C-9.67 7.01 -9.34 6.02 -9 5 C-7.68 5 -6.36 5 -5 5 C-5 4.34 -5 3.68 -5 3 C-3.35 3 -1.7 3 0 3 C0 2.01 0 1.02 0 0 Z " fill="#FFFFFF" transform="translate(435,507)"/>
<path d="M0 0 C18.48 0 36.96 0 56 0 C56 0.99 56 1.98 56 3 C56.99 3 57.98 3 59 3 C59.02888146 6.31248187 59.04675799 9.62493167 59.0625 12.9375 C59.07087891 13.88302734 59.07925781 14.82855469 59.08789062 15.80273438 C59.09111328 16.70185547 59.09433594 17.60097656 59.09765625 18.52734375 C59.10289307 19.35999756 59.10812988 20.19265137 59.11352539 21.05053711 C59 23 59 23 58 24 C55.6243148 24.0883967 53.27791326 24.11530305 50.90234375 24.09765625 C49.83905602 24.09553383 49.83905602 24.09553383 48.75428772 24.09336853 C46.48198288 24.08775443 44.20977525 24.07519963 41.9375 24.0625 C40.40039204 24.05748681 38.86328255 24.05292359 37.32617188 24.04882812 C33.55074358 24.03778042 29.77538829 24.02050641 26 24 C26 26.97 26 29.94 26 33 C35.24 33 44.48 33 54 33 C54 39.93 54 46.86 54 54 C44.76 54 35.52 54 26 54 C26 61.59 26 69.18 26 77 C17.42 77 8.84 77 0 77 C0 51.59 0 26.18 0 0 Z " fill="#FFFFFF" transform="translate(486,507)"/>
<path d="M0 0 C21.78 0 43.56 0 66 0 C66 7.92 66 15.84 66 24 C59.4 24 52.8 24 46 24 C46 41.49 46 58.98 46 77 C37.42 77 28.84 77 20 77 C20 59.51 20 42.02 20 24 C13.4 24 6.8 24 0 24 C0 16.08 0 8.16 0 0 Z " fill="#FFFFFF" transform="translate(251,507)"/>
<path d="M0 0 C7.92 0 15.84 0 24 0 C24 0.99 24 1.98 24 3 C24.66 3 25.32 3 26 3 C26 27.42 26 51.84 26 77 C17.42 77 8.84 77 0 77 C0 51.59 0 26.18 0 0 Z " fill="#FFFFFF" transform="translate(157,507)"/>
<path d="M0 0 C1.98 0 3.96 0 6 0 C6 0.99 6 1.98 6 3 C8.31 3 10.62 3 13 3 C13 3.66 13 4.32 13 5 C14.98 5 16.96 5 19 5 C19 5.99 19 6.98 19 8 C19.99 8 20.98 8 22 8 C22 8.66 22 9.32 22 10 C23.65 10 25.3 10 27 10 C27 10.99 27 11.98 27 13 C27.66 13 28.32 13 29 13 C29 13.66 29 14.32 29 15 C29.99 15 30.98 15 32 15 C32 15.99 32 16.98 32 18 C33.65 18 35.3 18 37 18 C37 18.66 37 19.32 37 20 C37.66 20 38.32 20 39 20 C39 21.65 39 23.3 39 25 C39.99 25 40.98 25 42 25 C42 25.99 42 26.98 42 28 C42.66 28 43.32 28 44 28 C44 28.66 44 29.32 44 30 C44.99 30 45.98 30 47 30 C47 30.99 47 31.98 47 33 C47.66 33 48.32 33 49 33 C49 34.65 49 36.3 49 38 C49.99 38 50.98 38 52 38 C52 39.65 52 41.3 52 43 C52.66 43 53.32 43 54 43 C54 44.65 54 46.3 54 48 C54.99 48 55.98 48 57 48 C57 50.64 57 53.28 57 56 C57.66 56 58.32 56 59 56 C59 59.96 59 63.92 59 68 C59.99 68 60.98 68 62 68 C62 75.92 62 83.84 62 92 C61.01 92 60.02 92 59 92 C59 96.29 59 100.58 59 105 C58.34 105 57.68 105 57 105 C57 107.31 57 109.62 57 112 C56.01 112 55.02 112 54 112 C54 113.65 54 115.3 54 117 C53.34 117 52.68 117 52 117 C52 118.65 52 120.3 52 122 C50.68 122 49.36 122 48 122 C48 115.07 48 108.14 48 101 C48.99 101 49.98 101 51 101 C51 97.7 51 94.4 51 91 C50.34 91 49.68 91 49 91 C47.34502644 87.69005287 47.89915665 84.00877 47.9375 80.375 C47.94201172 79.57320313 47.94652344 78.77140625 47.95117188 77.9453125 C47.96296832 75.96350994 47.98090395 73.98174567 48 72 C47.34 72 46.68 72 46 72 C46 68.7 46 65.4 46 62 C45.01 61.67 44.02 61.34 43 61 C43 59.68 43 58.36 43 57 C42.34 57 41.68 57 41 57 C41 54.36 41 51.72 41 49 C40.01 49 39.02 49 38 49 C38 47.35 38 45.7 38 44 C37.34 44 36.68 44 36 44 C36 42.35 36 40.7 36 39 C35.01 39 34.02 39 33 39 C33 38.01 33 37.02 33 36 C32.34 36 31.68 36 31 36 C31 34.35 31 32.7 31 31 C30.01 31 29.02 31 28 31 C28 30.34 28 29.68 28 29 C27.34 29 26.68 29 26 29 C26 28.01 26 27.02 26 26 C25.01 26 24.02 26 23 26 C23 25.34 23 24.68 23 24 C22.34 24 21.68 24 21 24 C21 22.35 21 20.7 21 19 C20.01 19 19.02 19 18 19 C18 18.01 18 17.02 18 16 C16.35 16 14.7 16 13 16 C13 15.34 13 14.68 13 14 C12.34 14 11.68 14 11 14 C11 13.01 11 12.02 11 11 C10.01 11 9.02 11 8 11 C8 10.01 8 9.02 8 8 C7.01 8 6.02 8 5 8 C5 7.34 5 6.68 5 6 C4.34 6 3.68 6 3 6 C3 5.01 3 4.02 3 3 C2.01 3 1.02 3 0 3 C0 2.01 0 1.02 0 0 Z " fill="#11A7D4" transform="translate(561,186)"/>
<path d="M0 0 C3.63 0 7.26 0 11 0 C11 0.99 11 1.98 11 3 C13.31 3 15.62 3 18 3 C18 2.01 18 1.02 18 0 C28.23 0 38.46 0 49 0 C49 3.63 49 7.26 49 11 C45.7 11 42.4 11 39 11 C39 20.24 39 29.48 39 39 C36.03 39 33.06 39 30 39 C30 29.76 30 20.52 30 11 C23.4 11 16.8 11 10 11 C10 10.01 10 9.02 10 8 C7.69 8 5.38 8 3 8 C3 8.99 3 9.98 3 11 C2.34 11 1.68 11 1 11 C1 12.32 1 13.64 1 15 C2.670625 14.9690625 2.670625 14.9690625 4.375 14.9375 C8 15 8 15 10 16 C10 16.66 10 17.32 10 18 C11.98 18 13.96 18 16 18 C16 18.66 16 19.32 16 20 C16.99 20 17.98 20 19 20 C19 20.99 19 21.98 19 23 C19.66 23 20.32 23 21 23 C21 25.64 21 28.28 21 31 C20.34 31 19.68 31 19 31 C19 32.65 19 34.3 19 36 C18.01 36 17.02 36 16 36 C16 36.99 16 37.98 16 39 C9.07 39 2.14 39 -5 39 C-5 38.01 -5 37.02 -5 36 C-6.65 36 -8.3 36 -10 36 C-10 35.01 -10 34.02 -10 33 C-9.34 33 -8.68 33 -8 33 C-8 31.35 -8 29.7 -8 28 C-6.02 28 -4.04 28 -2 28 C-2 28.66 -2 29.32 -2 30 C1.96 30 5.92 30 10 30 C10 28.68 10 27.36 10 26 C8.35 26 6.7 26 5 26 C5 25.34 5 24.68 5 24 C2.36 24 -0.28 24 -3 24 C-3 23.01 -3 22.02 -3 21 C-4.65 21 -6.3 21 -8 21 C-8 15.72 -8 10.44 -8 5 C-7.01 5 -6.02 5 -5 5 C-5 4.34 -5 3.68 -5 3 C-3.35 3 -1.7 3 0 3 C0 2.01 0 1.02 0 0 Z " fill="#11A5D3" transform="translate(425,603)"/>
<path d="M0 0 C1.65 0 3.3 0 5 0 C5 0.99 5 1.98 5 3 C5.99 3 6.98 3 8 3 C8 4.65 8 6.3 8 8 C8.99 8 9.98 8 11 8 C11 8.66 11 9.32 11 10 C11.66 10 12.32 10 13 10 C13 11.65 13 13.3 13 15 C13.99 15 14.98 15 16 15 C16 16.65 16 18.3 16 20 C17.32 20 18.64 20 20 20 C20 18.35 20 16.7 20 15 C20.66 15 21.32 15 22 15 C22 13.35 22 11.7 22 10 C22.99 10 23.98 10 25 10 C25 9.34 25 8.68 25 8 C25.66 8 26.32 8 27 8 C27 6.35 27 4.7 27 3 C27.99 3 28.98 3 30 3 C30 2.01 30 1.02 30 0 C31.98 0 33.96 0 36 0 C36 12.87 36 25.74 36 39 C33.03 39 30.06 39 27 39 C26.505 34.05 26.505 34.05 26 29 C25.01 29 24.02 29 23 29 C23 29.66 23 30.32 23 31 C22.34 31 21.68 31 21 31 C21 32.65 21 34.3 21 36 C19.02 36 17.04 36 15 36 C15 35.34 15 34.68 15 34 C14.01 34 13.02 34 12 34 C12 32.35 12 30.7 12 29 C11.34 29 10.68 29 10 29 C10 27.35 10 25.7 10 24 C9.34 24 8.68 24 8 24 C8 28.95 8 33.9 8 39 C4.37 39 0.74 39 -3 39 C-3 27.12 -3 15.24 -3 3 C-2.01 3 -1.02 3 0 3 C0 2.01 0 1.02 0 0 Z " fill="#11A5D4" transform="translate(342,603)"/>
<path d="M0 0 C2.05078125 0.03255208 4.1015625 0.06510417 6.15234375 0.09765625 C6.15234375 1.74765625 6.15234375 3.39765625 6.15234375 5.09765625 C6.81234375 5.09765625 7.47234375 5.09765625 8.15234375 5.09765625 C8.15234375 6.08765625 8.15234375 7.07765625 8.15234375 8.09765625 C9.14234375 8.09765625 10.13234375 8.09765625 11.15234375 8.09765625 C11.15234375 9.74765625 11.15234375 11.39765625 11.15234375 13.09765625 C12.14234375 13.09765625 13.13234375 13.09765625 14.15234375 13.09765625 C14.15234375 14.74765625 14.15234375 16.39765625 14.15234375 18.09765625 C14.81234375 18.09765625 15.47234375 18.09765625 16.15234375 18.09765625 C16.15234375 19.74765625 16.15234375 21.39765625 16.15234375 23.09765625 C16.81234375 23.09765625 17.47234375 23.09765625 18.15234375 23.09765625 C18.15234375 21.44765625 18.15234375 19.79765625 18.15234375 18.09765625 C18.81234375 18.09765625 19.47234375 18.09765625 20.15234375 18.09765625 C20.15234375 16.44765625 20.15234375 14.79765625 20.15234375 13.09765625 C21.14234375 13.09765625 22.13234375 13.09765625 23.15234375 13.09765625 C23.29671875 12.33453125 23.44109375 11.57140625 23.58984375 10.78515625 C24.15234375 8.09765625 24.15234375 8.09765625 25.15234375 5.09765625 C26.14234375 5.09765625 27.13234375 5.09765625 28.15234375 5.09765625 C28.15234375 3.44765625 28.15234375 1.79765625 28.15234375 0.09765625 C30.79234375 0.09765625 33.43234375 0.09765625 36.15234375 0.09765625 C36.15234375 12.96765625 36.15234375 25.83765625 36.15234375 39.09765625 C33.51234375 39.09765625 30.87234375 39.09765625 28.15234375 39.09765625 C28.15234375 33.15765625 28.15234375 27.21765625 28.15234375 21.09765625 C27.49234375 21.09765625 26.83234375 21.09765625 26.15234375 21.09765625 C26.15234375 22.74765625 26.15234375 24.39765625 26.15234375 26.09765625 C25.49234375 26.09765625 24.83234375 26.09765625 24.15234375 26.09765625 C24.15234375 27.74765625 24.15234375 29.39765625 24.15234375 31.09765625 C23.16234375 31.09765625 22.17234375 31.09765625 21.15234375 31.09765625 C21.15234375 32.08765625 21.15234375 33.07765625 21.15234375 34.09765625 C20.49234375 34.09765625 19.83234375 34.09765625 19.15234375 34.09765625 C19.15234375 34.75765625 19.15234375 35.41765625 19.15234375 36.09765625 C17.83234375 36.09765625 16.51234375 36.09765625 15.15234375 36.09765625 C15.15234375 35.43765625 15.15234375 34.77765625 15.15234375 34.09765625 C14.49234375 34.09765625 13.83234375 34.09765625 13.15234375 34.09765625 C13.15234375 33.10765625 13.15234375 32.11765625 13.15234375 31.09765625 C12.16234375 31.09765625 11.17234375 31.09765625 10.15234375 31.09765625 C10.15234375 29.44765625 10.15234375 27.79765625 10.15234375 26.09765625 C9.49234375 26.09765625 8.83234375 26.09765625 8.15234375 26.09765625 C8.15234375 24.44765625 8.15234375 22.79765625 8.15234375 21.09765625 C7.49234375 21.09765625 6.83234375 21.09765625 6.15234375 21.09765625 C6.15234375 27.03765625 6.15234375 32.97765625 6.15234375 39.09765625 C3.18234375 39.09765625 0.21234375 39.09765625 -2.84765625 39.09765625 C-2.87230474 33.70418637 -2.89049156 28.310749 -2.90258789 22.91723633 C-2.90762856 21.0809675 -2.91446102 19.24470271 -2.9230957 17.40844727 C-2.93517297 14.77489224 -2.94088706 12.14139009 -2.9453125 9.5078125 C-2.95047379 8.68177017 -2.95563507 7.85572784 -2.96095276 7.00465393 C-2.9611483 5.03529257 -2.90969777 3.06604011 -2.84765625 1.09765625 C-1.84765625 0.09765625 -1.84765625 0.09765625 0 0 Z " fill="#12A5D4" transform="translate(477.84765625,602.90234375)"/>
<path d="M0 0 C8.58 0 17.16 0 26 0 C26 3.63 26 7.26 26 11 C20.06 11 14.12 11 8 11 C8 12.32 8 13.64 8 15 C13.28 15 18.56 15 24 15 C24 17.64 24 20.28 24 23 C23 24 23 24 19.62109375 24.09765625 C18.22652923 24.09098369 16.83198257 24.07902532 15.4375 24.0625 C14.72658203 24.05798828 14.01566406 24.05347656 13.28320312 24.04882812 C11.52209987 24.03700864 9.76103964 24.01907263 8 24 C8 25.98 8 27.96 8 30 C13.94 30 19.88 30 26 30 C26 32.97 26 35.94 26 39 C17.42 39 8.84 39 0 39 C0 26.13 0 13.26 0 0 Z " fill="#11A5D3" transform="translate(521,603)"/>
<path d="M0 0 C0.74886475 0.00523682 1.49772949 0.01047363 2.26928711 0.01586914 C3.07817383 0.0190918 3.88706055 0.02231445 4.72045898 0.02563477 C5.5705957 0.03401367 6.42073242 0.04239258 7.29663086 0.05102539 C8.15063477 0.05553711 9.00463867 0.06004883 9.88452148 0.06469727 C12.00108749 0.07652166 14.11761771 0.0944577 16.23413086 0.11352539 C16.23413086 1.10352539 16.23413086 2.09352539 16.23413086 3.11352539 C18.87413086 3.11352539 21.51413086 3.11352539 24.23413086 3.11352539 C24.23413086 3.77352539 24.23413086 4.43352539 24.23413086 5.11352539 C24.89413086 5.11352539 25.55413086 5.11352539 26.23413086 5.11352539 C26.23413086 6.76352539 26.23413086 8.41352539 26.23413086 10.11352539 C27.22413086 10.11352539 28.21413086 10.11352539 29.23413086 10.11352539 C29.23413086 13.74352539 29.23413086 17.37352539 29.23413086 21.11352539 C28.24413086 21.11352539 27.25413086 21.11352539 26.23413086 21.11352539 C26.23413086 22.76352539 26.23413086 24.41352539 26.23413086 26.11352539 C24.58413086 26.11352539 22.93413086 26.11352539 21.23413086 26.11352539 C21.23413086 27.10352539 21.23413086 28.09352539 21.23413086 29.11352539 C16.28413086 29.11352539 11.33413086 29.11352539 6.23413086 29.11352539 C6.23413086 32.41352539 6.23413086 35.71352539 6.23413086 39.11352539 C3.26413086 39.11352539 0.29413086 39.11352539 -2.76586914 39.11352539 C-2.79051764 33.72005551 -2.80870445 28.32661814 -2.82080078 22.93310547 C-2.82584146 21.09683664 -2.83267391 19.26057185 -2.84130859 17.42431641 C-2.85338586 14.79076138 -2.85909995 12.15725923 -2.86352539 9.52368164 C-2.86868668 8.69763931 -2.87384796 7.87159698 -2.87916565 7.02052307 C-2.87936119 5.05116172 -2.82791066 3.08190926 -2.76586914 1.11352539 C-1.76586914 0.11352539 -1.76586914 0.11352539 0 0 Z M6.23413086 11.11352539 C6.23413086 14.08352539 6.23413086 17.05352539 6.23413086 20.11352539 C10.19413086 20.11352539 14.15413086 20.11352539 18.23413086 20.11352539 C18.23413086 17.14352539 18.23413086 14.17352539 18.23413086 11.11352539 C14.27413086 11.11352539 10.31413086 11.11352539 6.23413086 11.11352539 Z " fill="#12A6D4" transform="translate(386.765869140625,602.886474609375)"/>
<path d="M0 0 C4.68145711 -0.02291088 9.36272102 -0.04283732 14.04418945 -0.05493164 C15.63794614 -0.05997157 17.23169819 -0.0668035 18.82543945 -0.07543945 C21.11150253 -0.08751999 23.39750467 -0.09323155 25.68359375 -0.09765625 C26.40026718 -0.10281754 27.11694061 -0.10797882 27.85533142 -0.11329651 C29.57063672 -0.11349263 31.28581266 -0.06192007 33 0 C34 1 34 1 34.11352539 2.94946289 C34.10828857 3.7821167 34.10305176 4.61477051 34.09765625 5.47265625 C34.09515869 6.28226807 34.09266113 7.09187988 34.09008789 7.92602539 C34.08098389 8.96106201 34.07187988 9.99609863 34.0625 11.0625 C34.041875 14.341875 34.02125 17.62125 34 21 C22.78 21 11.56 21 0 21 C0 14.07 0 7.14 0 0 Z " fill="#FFFFFF" transform="translate(382,542)"/>
<path d="M0 0 C9.9 0.33 19.8 0.66 30 1 C30 1.66 30 2.32 30 3 C20.1 3 10.2 3 0 3 C0 2.01 0 1.02 0 0 Z " fill="#249AE5" transform="translate(443,603)"/>
<path d="M0 0 C5.94 0 11.88 0 18 0 C18 0.99 18 1.98 18 3 C11.73 3 5.46 3 -1 3 C-0.67 2.01 -0.34 1.02 0 0 Z " fill="#1783DE" transform="translate(385,603)"/>
<path d="M0 0 C0 0.99 0 1.98 0 3 C-8.25 3 -16.5 3 -25 3 C-25 2.34 -25 1.68 -25 1 C-21.39588419 0.83222143 -17.7916996 0.66596812 -14.1875 0.5 C-13.16333984 0.45230469 -12.13917969 0.40460937 -11.08398438 0.35546875 C-10.10107422 0.31035156 -9.11816406 0.26523437 -8.10546875 0.21875 C-7.19949951 0.17685547 -6.29353027 0.13496094 -5.36010742 0.09179688 C-3.57449311 0.02234503 -1.78696447 0 0 0 Z " fill="#1E94E2" transform="translate(547,603)"/>
<path d="M0 0 C4.95 0 9.9 0 15 0 C15 0.99 15 1.98 15 3 C10.05 3 5.1 3 0 3 C0 2.01 0 1.02 0 0 Z " fill="#269DD8" transform="translate(529,611)"/>
<path d="M0 0 C2.64 0 5.28 0 8 0 C8 0.99 8 1.98 8 3 C5.36 3 2.72 3 0 3 C0 2.01 0 1.02 0 0 Z " fill="#1F7DEC" transform="translate(506,603)"/>
<path d="M0 0 C0.99 0.33 1.98 0.66 3 1 C3 3.64 3 6.28 3 9 C2.01 8.67 1.02 8.34 0 8 C0 5.36 0 2.72 0 0 Z " fill="#088FB8" transform="translate(668,264)"/>
<path d="M0 0 C2.31 0 4.62 0 7 0 C7 0.99 7 1.98 7 3 C4.69 3 2.38 3 0 3 C0 2.01 0 1.02 0 0 Z " fill="#139DCE" transform="translate(393,611)"/>
</svg>
